<?xml version="1.0" standalone="no"?>
<!DOCTYPE svg PUBLIC "-//W3C//DTD SVG 20010904//EN"
 "http://www.w3.org/TR/2001/REC-SVG-20010904/DTD/svg10.dtd">
<svg version="1.0" xmlns="http://www.w3.org/2000/svg"
 width="500.000000pt" height="500.000000pt" viewBox="0 0 500.000000 500.000000"
 preserveAspectRatio="xMidYMid meet">
<metadata>
Created by potrace 1.14, written by Peter Selinger 2001-2017
</metadata>
<g transform="translate(0.000000,500.000000) scale(0.100000,-0.100000)"
fill="#000000" stroke="none">
<path d="M285 3531 c-3 -12 -11 -19 -16 -16 -5 4 -9 -1 -9 -9 0 -8 -16 -32
-36 -53 -19 -20 -31 -39 -25 -41 6 -2 11 -10 11 -18 0 -17 -27 -19 -33 -1 -2
6 -8 0 -12 -16 -4 -17 -3 -33 5 -42 6 -8 9 -23 5 -33 -3 -12 1 -26 10 -35 8
-9 12 -22 9 -30 -7 -20 32 -33 51 -17 20 17 38 3 25 -19 -6 -12 -5 -22 2 -29
15 -15 35 -15 40 0 3 7 12 9 22 5 23 -9 11 -27 -19 -27 -29 0 -40 -26 -16 -39
12 -7 22 -6 29 1 9 9 15 9 23 1 16 -16 3 -32 -20 -26 -29 7 -34 -14 -12 -51
11 -18 17 -36 13 -41 -4 -4 10 -4 32 -1 37 7 38 7 32 -17 -4 -16 -1 -29 9 -37
8 -7 13 -22 12 -33 -2 -20 2 -22 36 -19 34 3 37 1 37 -22 0 -14 5 -28 11 -32
6 -3 9 -14 6 -24 -6 -22 20 -35 38 -20 9 8 17 6 29 -5 20 -20 11 -38 -15 -30
-14 5 -19 2 -19 -10 0 -13 6 -16 22 -12 12 4 28 1 35 -5 11 -9 11 -14 -3 -29
-16 -18 -15 -19 7 -28 17 -6 29 -5 39 4 22 18 41 8 34 -19 -7 -28 18 -41 46
-26 27 14 30 13 30 -15 0 -30 24 -43 46 -25 10 9 18 10 26 2 16 -16 0 -33 -26
-26 -28 7 -42 -19 -20 -37 10 -8 13 -21 9 -36 -7 -28 17 -42 40 -23 19 16 35
4 35 -25 0 -28 19 -37 40 -19 20 17 45 2 36 -21 -4 -11 -12 -15 -22 -11 -17 6
-44 -9 -44 -25 0 -12 47 -12 54 0 3 5 15 7 27 4 12 -3 25 0 29 7 12 20 43 3
37 -20 -3 -12 1 -24 10 -29 10 -5 14 -15 9 -26 -3 -10 -1 -24 5 -32 10 -11 15
-11 30 3 25 22 54 2 39 -26 -8 -15 -6 -20 11 -25 13 -4 25 -2 29 5 11 18 41 4
33 -15 -4 -11 -13 -15 -28 -11 -16 4 -25 1 -29 -11 -9 -24 26 -45 39 -23 3 6
17 7 30 4 12 -3 26 -1 29 5 11 18 38 13 34 -6 -2 -11 -12 -18 -27 -18 -13 0
-26 -6 -28 -12 -6 -18 27 -29 37 -13 4 7 16 9 29 5 16 -5 20 -12 15 -29 -7
-28 19 -42 37 -20 16 19 42 -1 34 -27 -4 -12 -1 -21 10 -25 12 -5 15 -14 10
-31 -7 -28 17 -42 40 -23 19 16 35 4 35 -25 0 -32 17 -41 39 -21 16 14 20 15
30 2 7 -8 11 -23 9 -32 -4 -22 31 -32 42 -14 12 19 43 4 36 -16 -4 -9 -1 -23
5 -31 10 -11 15 -11 30 3 25 22 54 2 39 -26 -7 -13 -6 -20 6 -24 9 -3 20 -4
25 0 13 8 11 32 -3 36 -18 6 0 40 19 36 13 -2 17 -11 15 -29 -2 -17 3 -29 12
-32 22 -9 30 11 15 39 -9 18 -10 27 -2 35 16 16 33 2 33 -26 0 -28 17 -42 33
-26 9 9 8 16 -1 31 -12 19 -7 50 8 50 13 0 25 -23 22 -43 -4 -22 27 -35 39
-16 5 8 2 20 -7 30 -10 11 -12 19 -5 24 16 9 31 -3 25 -20 -8 -20 33 -40 51
-25 19 16 37 3 30 -21 -8 -24 19 -36 40 -19 18 15 49 -5 41 -27 -7 -18 21 -28
38 -14 7 6 21 9 30 5 9 -3 23 -1 31 6 8 7 22 10 30 6 9 -3 25 0 36 7 16 10 21
9 29 -3 12 -19 4 -29 -20 -23 -11 3 -27 0 -35 -7 -8 -6 -23 -9 -35 -5 -13 4
-22 1 -26 -9 -4 -11 -14 -14 -29 -10 -28 7 -41 -11 -24 -32 10 -13 14 -13 29
1 10 9 24 13 35 9 11 -5 21 -1 27 10 7 13 13 14 29 6 15 -9 17 -15 9 -30 -8
-15 -6 -21 9 -30 15 -8 22 -7 29 5 13 25 45 8 38 -20 -5 -20 8 -35 29 -35 10
0 13 35 4 46 -6 8 -9 21 -5 29 5 13 10 14 26 5 17 -9 19 -14 10 -25 -13 -16
-5 -35 15 -35 21 0 28 19 13 37 -7 9 -11 26 -10 39 3 18 -1 24 -16 24 -11 0
-22 -5 -24 -11 -5 -16 -39 2 -36 19 2 11 17 16 51 18 44 3 47 1 47 -21 0 -13
5 -27 11 -31 6 -3 9 -15 6 -25 -6 -21 17 -44 33 -34 16 10 12 33 -7 44 -14 7
-15 12 -4 24 19 23 44 10 36 -20 -4 -16 -1 -25 10 -30 12 -4 15 -13 10 -30 -4
-16 -1 -25 11 -30 23 -9 36 18 18 38 -8 9 -12 24 -8 33 3 9 1 22 -5 30 -6 7
-8 16 -4 19 12 13 23 7 23 -12 0 -10 7 -24 15 -31 9 -7 13 -20 10 -28 -3 -8 1
-22 9 -31 8 -9 14 -20 14 -26 -1 -15 75 -25 91 -12 8 7 24 10 36 9 27 -4 42
15 26 31 -8 8 -17 7 -35 -2 -30 -16 -50 -6 -42 22 3 12 0 27 -5 34 -12 14 -3
36 12 28 5 -4 9 -15 9 -26 0 -26 30 -37 42 -15 7 12 14 14 27 6 24 -13 51 14
33 32 -7 7 -12 20 -12 30 0 10 -7 18 -16 18 -10 0 -14 -7 -12 -22 4 -27 -22
-37 -29 -10 -4 17 -12 20 -56 18 -33 -1 -61 4 -76 13 -13 8 -41 16 -61 17 -20
1 -51 9 -68 18 -17 9 -45 16 -62 16 -23 0 -33 6 -40 25 -8 22 -13 24 -30 15
-26 -14 -43 -4 -35 21 7 22 -20 38 -37 21 -8 -8 -8 -15 2 -27 10 -13 9 -15 -9
-15 -12 0 -21 6 -21 16 0 9 -7 14 -17 12 -14 -3 -17 -12 -15 -37 3 -24 0 -32
-9 -29 -8 3 -14 15 -14 29 0 20 -5 24 -30 25 -49 2 -52 3 -58 22 -4 16 -13 19
-68 17 -35 -2 -58 0 -51 2 24 9 -21 32 -62 33 -29 0 -37 3 -33 15 7 18 -11 30
-40 27 -16 -2 -22 3 -25 20 -2 12 -13 27 -25 34 -17 8 -20 13 -11 22 18 18 -6
40 -25 24 -16 -13 -27 -6 -27 17 0 8 -10 25 -21 37 l-21 23 33 21 c32 20 32
21 9 19 -51 -3 -54 -1 -37 24 8 12 20 23 26 23 22 3 23 4 11 19 -10 12 -15 13
-21 4 -8 -13 -39 -5 -39 11 0 5 9 10 20 10 22 0 25 5 35 63 3 21 10 35 14 32
5 -2 14 2 20 9 9 11 9 16 0 22 -7 4 -15 2 -17 -4 -2 -7 -14 -12 -27 -12 -12 0
-28 -7 -35 -15 -8 -9 -21 -13 -36 -9 -22 6 -24 4 -22 -26 4 -39 -17 -51 -26
-15 -10 38 -37 33 -34 -7 3 -29 0 -33 -22 -32 -14 1 -28 -5 -33 -12 -11 -19
-40 -5 -34 17 6 22 -9 34 -42 34 -13 0 -26 6 -29 14 -3 10 3 12 27 6 24 -5 31
-3 31 8 0 18 -30 31 -43 18 -19 -19 -45 0 -44 33 0 17 -7 46 -16 64 -20 40
-13 62 19 62 13 0 24 6 24 13 0 23 -11 27 -36 10 -25 -16 -29 -12 -25 29 3 24
-33 42 -49 23 -20 -24 -38 -6 -45 46 -7 47 -16 61 -42 65 -17 3 -16 -7 3 -34
21 -31 12 -54 -20 -46 -27 6 -44 -12 -27 -29 8 -8 17 -7 35 2 32 18 50 7 33
-21 -9 -16 -9 -22 1 -25 12 -5 17 -35 6 -46 -14 -14 -34 6 -28 28 6 26 -12 43
-29 26 -9 -9 -8 -17 2 -32 7 -13 9 -25 3 -31 -16 -16 -38 2 -39 35 -2 48 -8
68 -23 77 -7 4 -11 17 -7 29 3 12 1 24 -4 27 -5 3 -6 16 -3 29 4 17 0 26 -15
35 -31 16 -12 49 24 43 21 -5 25 -2 25 17 0 19 -4 21 -22 15 -13 -4 -32 -8
-43 -8 -11 -1 -26 -6 -32 -10 -8 -5 -13 -3 -13 7 0 21 52 44 89 40 30 -3 30
-3 13 16 -9 11 -19 32 -22 47 -6 30 -18 37 -40 23 -13 -9 -13 -12 3 -24 25
-20 22 -48 -5 -44 -19 2 -22 8 -20 36 2 19 -1 32 -8 32 -6 0 -10 8 -8 18 2 12
13 17 38 17 24 0 35 5 35 15 0 11 -11 15 -39 15 -24 0 -41 5 -44 14 -3 9 2 11
18 6 16 -5 26 -1 37 15 12 17 18 19 30 9 8 -7 12 -21 9 -31 -5 -23 20 -36 36
-20 9 9 8 18 -2 37 -15 28 -9 41 15 31 11 -4 14 -13 9 -31 -4 -15 -2 -25 5
-25 6 0 11 -13 11 -30 0 -16 7 -33 15 -38 26 -14 8 -39 -24 -34 -20 3 -30 -1
-34 -12 -8 -21 18 -32 38 -16 8 7 21 10 29 7 18 -7 42 18 26 28 -5 3 -7 17 -4
29 4 17 0 28 -15 38 -19 13 -20 17 -6 28 21 17 45 6 38 -18 -2 -11 0 -23 6
-26 6 -4 11 -20 11 -35 0 -37 10 -44 32 -24 17 15 20 15 35 0 18 -17 13 -22
-32 -29 -11 -2 -20 -10 -20 -18 0 -11 10 -14 38 -13 27 2 37 -2 37 -12 0 -9
-10 -15 -24 -15 -30 0 -50 -22 -34 -38 15 -15 2 -43 -17 -36 -18 7 -31 -21
-17 -39 5 -7 6 -21 1 -32 -21 -52 1 -74 36 -35 10 11 29 20 42 20 19 0 23 5
22 23 -4 43 1 57 20 57 26 0 34 15 20 37 -8 14 -7 26 4 53 13 29 15 31 14 10
-1 -16 4 -25 16 -28 12 -2 17 3 17 17 0 12 -4 21 -10 21 -25 0 -7 30 23 38 30
8 32 11 29 47 -3 32 -1 37 13 31 9 -3 25 -1 37 5 11 6 26 8 35 5 13 -5 13 -9
2 -22 -11 -13 -10 -18 9 -33 15 -11 21 -23 17 -33 -8 -21 10 -32 24 -14 9 11
8 17 -4 29 -8 9 -12 23 -9 31 3 9 1 23 -6 31 -10 13 -9 15 9 15 15 0 21 -5 19
-16 -2 -9 5 -21 14 -27 14 -9 20 -8 31 7 12 16 14 16 26 2 18 -21 5 -37 -27
-34 -19 2 -27 -2 -30 -15 -3 -17 1 -18 45 -11 26 3 54 11 61 17 9 7 16 7 24
-1 14 -14 1 -33 -18 -25 -14 5 -33 -11 -34 -28 0 -14 33 -19 47 -8 11 9 17 9
26 0 9 -9 9 -14 -3 -21 -8 -6 -21 -8 -28 -5 -17 6 -28 -23 -14 -37 8 -8 15 -8
27 2 12 10 18 10 30 0 19 -16 10 -30 -21 -30 -15 0 -24 -6 -24 -15 0 -21 27
-30 46 -15 11 10 18 10 26 2 16 -16 -7 -41 -31 -35 -10 3 -22 -1 -26 -7 -11
-17 11 -34 32 -25 10 5 26 7 35 6 25 -3 42 33 23 49 -20 17 -10 30 24 30 15 0
32 5 38 11 15 15 36 1 28 -19 -8 -23 17 -34 36 -16 14 12 22 13 38 4 17 -9 22
-8 27 5 4 10 13 13 26 9 10 -3 25 0 33 6 21 18 45 5 38 -20 -4 -13 1 -26 12
-33 9 -7 15 -21 13 -31 -1 -11 3 -21 10 -23 9 -4 11 5 6 36 -7 41 -2 47 29 35
9 -3 12 -14 10 -28 -6 -28 12 -42 32 -26 21 17 48 4 42 -20 -3 -10 1 -24 9
-31 8 -7 11 -21 8 -35 -5 -18 -2 -24 9 -24 23 0 29 16 15 39 -10 16 -10 23 -1
32 16 16 43 -5 36 -30 -2 -9 2 -23 11 -30 20 -17 9 -41 -19 -41 -27 0 -41 -15
-25 -25 6 -4 17 -1 25 5 21 17 48 4 42 -19 -3 -11 1 -28 8 -38 8 -11 13 -28
12 -39 -1 -11 4 -19 13 -19 9 0 14 7 12 20 -2 11 -5 31 -6 45 -1 14 -5 31 -10
39 -6 10 -5 16 2 19 7 2 10 8 7 13 -4 5 1 6 10 3 11 -5 15 -14 11 -29 -3 -13
0 -27 8 -34 8 -7 12 -20 9 -30 -3 -11 2 -21 11 -24 22 -9 29 8 14 32 -9 16
-10 23 -1 32 18 18 43 3 43 -27 0 -16 5 -24 13 -21 6 2 10 11 8 18 -9 36 -5
44 24 47 17 2 35 8 42 14 17 14 36 0 30 -22 -6 -23 21 -36 30 -14 3 9 0 20 -7
24 -23 14 -3 43 24 36 14 -3 28 -1 31 5 4 6 17 8 30 5 14 -4 28 0 35 9 16 20
40 2 33 -24 -6 -23 24 -36 44 -20 11 10 11 14 -2 29 -18 20 -20 43 -2 38 6 -3
13 -14 15 -25 4 -26 30 -37 48 -22 7 6 22 8 33 4 10 -3 22 -1 26 5 3 5 15 10
26 10 16 0 19 -4 14 -21 -9 -26 12 -41 35 -27 10 6 25 8 35 4 14 -5 15 -9 5
-21 -10 -13 -9 -19 5 -35 22 -24 13 -51 -16 -47 -12 1 -24 -4 -26 -10 -6 -16
33 -18 42 -3 11 17 36 -10 30 -31 -3 -9 -1 -20 5 -24 5 -3 10 -17 10 -30 0
-28 17 -42 33 -26 6 6 21 11 33 11 27 0 42 19 24 30 -8 5 -10 17 -6 33 4 19 1
29 -11 36 -20 11 -12 24 16 26 11 1 26 7 35 14 12 10 19 11 29 2 11 -8 18 -6
32 9 14 16 21 17 32 8 8 -6 12 -17 9 -24 -7 -19 18 -36 32 -22 7 7 34 13 62
15 49 3 50 2 44 -22 -4 -16 -2 -25 6 -25 8 0 10 -10 6 -33 -8 -42 1 -51 31
-31 27 17 56 4 46 -22 -7 -19 27 -31 38 -13 5 8 20 13 38 11 16 -2 32 2 36 8
3 5 11 8 16 4 20 -12 38 16 28 43 -11 29 -4 44 17 36 10 -4 14 -13 10 -28 -8
-31 16 -51 34 -29 8 9 22 13 36 10 22 -6 40 16 28 35 -10 16 9 9 22 -8 20 -26
17 -41 -8 -45 -13 -2 -24 -11 -26 -22 -4 -16 0 -18 28 -12 28 5 31 4 20 -9 -7
-8 -16 -12 -21 -9 -12 7 -22 -40 -14 -65 5 -18 2 -21 -20 -21 -26 0 -27 -2
-21 -34 7 -38 -2 -50 -45 -55 -6 0 -8 -9 -4 -20 8 -26 -3 -48 -27 -54 -14 -4
-18 -11 -14 -25 10 -31 -3 -53 -24 -42 -14 8 -19 5 -23 -12 -4 -12 -1 -28 5
-35 8 -10 8 -17 0 -25 -15 -15 -34 0 -27 23 4 13 1 21 -10 25 -23 9 -42 -11
-26 -29 13 -17 4 -50 -13 -44 -6 2 -11 15 -11 28 0 17 -7 25 -23 27 -12 2 -22
-2 -22 -8 0 -8 -6 -8 -20 0 -12 6 -20 21 -20 37 0 23 -3 25 -30 19 -17 -3 -30
-1 -30 4 0 6 7 10 15 10 17 0 39 36 26 44 -8 5 -18 49 -22 96 -3 32 -19 40
-44 24 -13 -9 -29 -13 -35 -9 -6 4 -17 0 -23 -8 -7 -9 -23 -17 -37 -19 -21 -2
-25 -8 -22 -31 2 -21 -3 -29 -23 -37 -14 -5 -25 -17 -25 -25 0 -20 30 -32 40
-15 11 18 41 5 33 -16 -4 -10 -14 -14 -29 -11 -16 3 -24 0 -24 -10 0 -10 11
-13 38 -11 34 3 37 1 40 -25 3 -20 8 -27 18 -23 8 3 21 9 29 12 19 8 33 -25
15 -36 -7 -4 -20 -5 -30 -3 -10 3 -21 0 -24 -6 -13 -20 -36 -12 -36 12 0 30
-10 40 -27 26 -10 -9 -10 -15 -2 -25 13 -16 4 -34 -17 -34 -8 0 -14 10 -14 25
0 15 -6 25 -14 25 -17 0 -29 -27 -14 -32 16 -6 2 -38 -17 -38 -9 0 -15 9 -15
25 0 18 -5 25 -20 25 -20 0 -28 -24 -10 -35 11 -7 2 -35 -11 -35 -5 0 -12 8
-15 18 -3 9 -11 27 -16 39 -15 30 4 52 37 45 18 -3 25 0 25 12 0 9 -7 19 -16
23 -10 4 -14 13 -10 28 6 24 -13 39 -37 29 -7 -2 -23 7 -35 21 -31 36 -46 32
-38 -9 6 -30 4 -34 -19 -40 -28 -7 -33 -30 -9 -44 11 -6 13 -11 5 -16 -17 -11
-13 -33 6 -40 11 -5 22 -1 30 9 15 22 33 11 33 -21 0 -27 -3 -28 -30 -14 -25
13 -38 -19 -15 -36 15 -11 15 -13 -4 -24 -12 -6 -26 -8 -32 -4 -6 3 -16 -2
-23 -12 -8 -10 -20 -15 -29 -11 -8 3 -21 -1 -28 -9 -8 -10 -21 -13 -36 -9 -30
7 -44 -22 -19 -40 23 -18 10 -46 -18 -39 -14 3 -27 -1 -35 -10 -10 -12 -18
-13 -32 -5 -15 8 -21 6 -26 -6 -4 -11 -13 -15 -27 -11 -11 3 -30 -2 -41 -11
-19 -14 -16 -15 34 -9 30 4 62 11 70 16 10 5 24 4 34 -1 13 -8 19 -6 23 6 5
11 14 15 29 11 14 -4 28 0 35 9 19 23 54 1 40 -26 -9 -15 -15 -17 -30 -9 -10
5 -21 6 -24 1 -9 -14 6 -21 46 -21 27 0 41 5 45 17 4 9 1 19 -5 21 -17 5 -15
32 3 38 24 9 37 -5 25 -27 -9 -15 -7 -21 5 -25 8 -4 22 -1 30 6 8 6 23 9 33 6
11 -4 24 0 32 9 9 11 17 12 31 5 25 -14 48 24 23 38 -19 10 -11 32 12 32 8 0
14 -10 14 -24 0 -13 6 -26 14 -29 18 -7 30 22 15 39 -13 16 -4 34 18 34 10 0
14 -6 10 -20 -7 -26 26 -46 42 -26 7 8 21 12 31 9 11 -3 26 0 34 6 7 6 21 9
30 5 10 -4 18 0 22 10 5 13 14 15 34 11 19 -4 29 -2 33 9 4 9 2 18 -3 21 -6 4
-10 15 -10 26 0 14 5 19 18 17 12 -3 16 -12 14 -31 -2 -21 1 -27 17 -27 11 0
23 5 26 10 3 6 17 7 31 4 32 -8 45 21 18 41 -14 10 -16 17 -8 25 16 16 46 1
39 -20 -8 -26 19 -45 35 -25 10 12 10 19 2 27 -17 17 -15 38 3 38 9 0 15 -9
15 -24 0 -29 24 -41 41 -20 7 8 20 12 31 8 10 -3 25 0 33 6 8 6 23 9 33 6 13
-4 22 -1 26 9 4 11 13 14 31 9 18 -4 27 -2 31 10 9 24 44 2 37 -24 -6 -22 28
-43 35 -22 2 7 17 12 32 12 35 0 45 13 24 30 -11 10 -18 10 -26 2 -19 -19 -50
-15 -46 6 2 11 13 17 29 17 14 0 32 5 40 12 20 16 43 1 35 -25 -4 -13 -1 -22
9 -26 21 -8 31 20 15 39 -18 21 3 44 35 37 26 -5 35 14 15 34 -15 15 -2 44 16
37 8 -3 14 -13 14 -23 0 -24 18 -36 32 -22 8 8 7 16 -2 26 -19 24 -5 48 23 41
28 -7 45 19 26 41 -13 16 -3 35 15 28 8 -3 12 -14 9 -25 -3 -12 1 -21 12 -25
23 -9 36 14 22 37 -6 10 -8 21 -5 24 10 10 33 -8 33 -25 0 -18 25 -24 45 -10
13 9 13 12 -2 21 -10 5 -18 17 -18 24 0 21 27 19 39 -2 11 -20 21 -14 25 14 2
11 11 17 24 16 11 -1 25 4 32 12 8 9 21 13 36 9 13 -3 24 -2 24 4 0 5 28 15
63 22 63 13 117 37 117 53 0 4 5 5 10 2 14 -9 32 44 27 78 -2 18 1 31 9 34 20
7 30 93 13 104 -19 12 -32 11 -24 -1 4 -6 -6 -10 -22 -10 -15 0 -38 -3 -50 -6
-17 -5 -23 -2 -23 10 0 10 4 14 10 11 5 -3 18 -2 27 4 15 8 16 10 3 14 -44 15
-73 17 -86 7 -15 -13 -34 -5 -34 14 0 8 -11 16 -25 18 -14 3 -25 1 -25 -5 0
-5 -7 -4 -15 3 -11 9 -18 10 -29 1 -17 -14 -49 -3 -42 15 3 7 -4 16 -17 20
-12 4 -23 2 -25 -5 -3 -8 -9 -8 -24 0 -14 8 -23 8 -31 0 -17 -17 -27 -13 -37
14 -9 23 -13 25 -50 19 -33 -5 -40 -4 -40 10 0 13 -21 22 -32 14 -2 -1 -13 4
-25 10 -14 8 -24 9 -28 2 -11 -17 -44 -11 -55 10 -16 31 -30 24 -23 -11 5 -25
3 -31 -8 -27 -8 3 -16 13 -17 24 -6 29 -18 37 -41 25 -17 -10 -23 -8 -33 9
-19 30 -40 26 -32 -6 6 -22 4 -25 -12 -22 -13 2 -18 10 -16 25 3 25 -24 38
-45 22 -11 -10 -18 -8 -33 8 -23 25 -86 39 -106 22 -20 -16 -44 -4 -41 22 2
20 -3 22 -45 25 -33 2 -48 -1 -52 -12 -9 -24 -38 -17 -34 9 3 19 -2 22 -29 22
-18 0 -38 6 -45 13 -11 11 -9 12 7 7 13 -4 12 -1 -5 8 -25 15 -93 17 -106 4
-12 -12 -22 -8 -44 15 -11 12 -32 24 -46 26 -15 1 -33 10 -41 18 -8 7 -19 14
-26 14 -6 0 -3 -6 7 -13 10 -8 15 -19 11 -30 -10 -24 -45 -4 -38 21 4 16 -3
20 -39 25 -35 5 -46 3 -58 -13 -18 -23 -43 -12 -38 16 2 15 -3 19 -29 19 -17
0 -35 4 -40 9 -4 5 -3 6 4 2 6 -3 14 -2 18 3 3 5 -16 12 -42 16 -27 3 -56 8
-65 10 -10 2 -21 -1 -24 -6 -8 -14 -22 -11 -41 10 -10 11 -30 22 -46 26 -15 4
-30 11 -33 16 -8 14 -24 11 -19 -3 7 -18 -11 -42 -24 -34 -6 4 -11 18 -11 32
0 19 -5 24 -27 26 -47 2 -67 -2 -76 -17 -11 -21 -39 -7 -32 16 8 23 -21 37
-38 20 -9 -9 -9 -14 2 -20 18 -12 6 -42 -14 -35 -10 4 -13 14 -9 29 8 33 -27
52 -44 24 -15 -23 -36 -15 -29 12 4 13 -2 19 -24 24 -16 4 -33 4 -38 1 -5 -3
-14 1 -21 9 -9 11 -30 15 -69 14 -31 0 -67 2 -80 7 -17 5 -22 4 -17 -4 5 -8 0
-12 -13 -12 -12 0 -21 6 -21 14 0 16 -21 26 -55 26 -13 0 -27 5 -31 12 -5 7
-10 3 -16 -12 -7 -18 -11 -21 -21 -11 -7 7 -12 17 -12 24 0 13 -94 17 -102 5
-7 -13 -25 -9 -20 5 5 17 -103 39 -121 25 -7 -6 -16 -8 -19 -4 -4 4 -2 10 4
14 16 10 4 25 -30 40 -32 14 -38 15 -34 4 1 -4 -1 -8 -5 -10 -18 -5 -28 -1
-28 12 0 19 -91 40 -102 23 -6 -9 -13 -6 -26 9 -18 23 -62 38 -62 22 0 -5 -12
-2 -27 6 -43 23 -92 36 -109 29 -9 -3 -19 0 -24 6 -10 17 -91 34 -103 22 -12
-12 -37 -3 -37 14 0 18 -89 32 -99 16 -5 -7 -14 -3 -29 14 -16 18 -31 24 -59
23 -21 0 -44 -5 -51 -11 -18 -15 -25 -2 -8 15 13 13 9 16 -30 25 -24 6 -44 6
-44 2 0 -14 -17 -11 -33 5 -19 19 -91 39 -95 26 -5 -15 -19 -12 -39 9 -21 21
-89 35 -99 19 -4 -7 -13 -2 -24 11 -10 15 -30 24 -54 26 -21 2 -40 6 -44 9 -3
3 -11 -2 -19 -12 -13 -16 -14 -15 -8 4 5 18 0 23 -30 28 -19 4 -40 4 -46 1 -6
-4 -18 0 -28 10 -10 9 -38 17 -62 18 -24 1 -47 6 -50 11 -4 5 -10 -1 -14 -13z
m95 -31 c0 -5 -7 -10 -16 -10 -8 0 -12 5 -9 10 3 6 10 10 16 10 5 0 9 -4 9
-10z m217 -76 c-9 -9 -28 6 -21 18 4 6 10 6 17 -1 6 -6 8 -13 4 -17z m136 -19
c8 -18 -11 -31 -25 -17 -11 11 -3 32 12 32 4 0 10 -7 13 -15z m137 -35 c0 -5
-7 -10 -15 -10 -8 0 -15 5 -15 10 0 6 7 10 15 10 8 0 15 -4 15 -10z m-70 -10
c0 -5 -4 -10 -10 -10 -5 0 -10 5 -10 10 0 6 5 10 10 10 6 0 10 -4 10 -10z
m-571 -36 c-6 -7 -15 -11 -21 -8 -5 3 -4 12 3 20 6 7 15 11 21 8 5 -3 4 -12
-3 -20z m726 16 c3 -6 -1 -13 -10 -16 -19 -8 -30 0 -20 15 8 14 22 14 30 1z
m130 -50 c-5 -8 -11 -8 -17 -2 -6 6 -7 16 -3 22 5 8 11 8 17 2 6 -6 7 -16 3
-22z m-780 0 c3 -5 -1 -10 -9 -10 -9 0 -16 5 -16 10 0 6 4 10 9 10 6 0 13 -4
16 -10z m716 -3 c-1 -12 -15 -9 -19 4 -3 6 1 10 8 8 6 -3 11 -8 11 -12z m-773
-20 c2 -12 -3 -17 -17 -17 -12 0 -21 6 -21 13 0 31 32 34 38 4z m972 8 c0 -8
-4 -15 -9 -15 -13 0 -22 16 -14 24 11 11 23 6 23 -9z m-260 -5 c0 -5 -4 -10
-10 -10 -5 0 -10 5 -10 10 0 6 5 10 10 10 6 0 10 -4 10 -10z m400 -30 c0 -5
-4 -10 -10 -10 -5 0 -10 5 -10 10 0 6 5 10 10 10 6 0 10 -4 10 -10z m-260 -10
c0 -5 -2 -10 -4 -10 -3 0 -8 5 -11 10 -3 6 -1 10 4 10 6 0 11 -4 11 -10z m190
0 c0 -5 -5 -10 -11 -10 -5 0 -7 5 -4 10 3 6 8 10 11 10 2 0 4 -4 4 -10z m207
-22 c-3 -8 -6 -5 -6 6 -1 11 2 17 5 13 3 -3 4 -12 1 -19z m-57 -9 c0 -5 -7 -9
-15 -9 -15 0 -20 12 -9 23 8 8 24 -1 24 -14z m-265 1 c-3 -5 -10 -10 -16 -10
-5 0 -9 5 -9 10 0 6 7 10 16 10 8 0 12 -4 9 -10z m200 -10 c3 -5 1 -10 -4 -10
-6 0 -11 5 -11 10 0 6 2 10 4 10 3 0 8 -4 11 -10z m-255 -14 c0 -8 -4 -18 -10
-21 -5 -3 -10 3 -10 14 0 12 5 21 10 21 6 0 10 -6 10 -14z m-260 -6 c0 -5 -4
-10 -10 -10 -5 0 -10 5 -10 10 0 6 5 10 10 10 6 0 10 -4 10 -10z m198 -8 c2
-7 -3 -12 -12 -12 -9 0 -16 7 -16 16 0 17 22 14 28 -4z m252 8 c0 -5 -4 -10
-10 -10 -5 0 -10 5 -10 10 0 6 5 10 10 10 6 0 10 -4 10 -10z m260 -6 c0 -8 -4
-12 -10 -9 -5 3 -10 10 -10 16 0 5 5 9 10 9 6 0 10 -7 10 -16z m-65 -4 c3 -5
1 -10 -4 -10 -6 0 -11 5 -11 10 0 6 2 10 4 10 3 0 8 -4 11 -10z m-255 -10 c0
-5 -4 -10 -10 -10 -5 0 -10 5 -10 10 0 6 5 10 10 10 6 0 10 -4 10 -10z m460
-5 c0 -8 -4 -15 -9 -15 -13 0 -22 16 -14 24 11 11 23 6 23 -9z m-520 -10 c0
-8 -7 -15 -15 -15 -16 0 -20 12 -8 23 11 12 23 8 23 -8z m255 5 c3 -5 1 -10
-4 -10 -6 0 -11 5 -11 10 0 6 2 10 4 10 3 0 8 -4 11 -10z m-301 -25 c-4 -8
-12 -15 -20 -15 -20 0 -17 18 4 23 9 3 18 5 19 6 1 0 0 -6 -3 -14z m-71 -20
c-6 -18 -19 -19 -29 -4 -7 12 15 31 28 23 4 -3 5 -11 1 -19z m205 -10 c-3 -3
-9 2 -12 12 -6 14 -5 15 5 6 7 -7 10 -15 7 -18z m52 15 c0 -5 -4 -10 -10 -10
-5 0 -10 5 -10 10 0 6 5 10 10 10 6 0 10 -4 10 -10z m455 0 c-3 -5 -10 -10
-16 -10 -5 0 -9 5 -9 10 0 6 7 10 16 10 8 0 12 -4 9 -10z m-755 -4 c0 -3 -4
-8 -10 -11 -5 -3 -10 -1 -10 4 0 6 5 11 10 11 6 0 10 -2 10 -4z m700 -11 c0
-8 -4 -15 -10 -15 -5 0 -7 7 -4 15 4 8 8 15 10 15 2 0 4 -7 4 -15z m-510 -9
c0 -17 -27 -29 -35 -16 -4 6 -3 15 0 20 9 15 35 12 35 -4z m710 -7 c0 -5 -7
-9 -15 -9 -15 0 -20 12 -9 23 8 8 24 -1 24 -14z m-525 1 c3 -5 1 -10 -4 -10
-6 0 -11 5 -11 10 0 6 2 10 4 10 3 0 8 -4 11 -10z m265 0 c0 -5 -7 -10 -15
-10 -8 0 -15 5 -15 10 0 6 7 10 15 10 8 0 15 -4 15 -10z m198 -11 c-2 -6 -8
-10 -13 -10 -5 0 -11 4 -13 10 -2 6 4 11 13 11 9 0 15 -5 13 -11z m-1498 -19
c0 -22 -1 -23 -24 -14 -18 7 -10 34 10 34 8 0 14 -9 14 -20z m975 2 c0 -18
-20 -15 -23 4 -3 10 1 15 10 12 7 -3 13 -10 13 -16z m252 -4 c-3 -8 -6 -5 -6
6 -1 11 2 17 5 13 3 -3 4 -12 1 -19z m463 2 c0 -11 -4 -20 -9 -20 -14 0 -23
18 -16 30 10 17 25 11 25 -10z m-1235 0 c3 -5 1 -10 -4 -10 -6 0 -11 5 -11 10
0 6 2 10 4 10 3 0 8 -4 11 -10z m463 -13 c2 -10 -3 -17 -12 -17 -18 0 -29 16
-21 31 9 14 29 6 33 -14z m260 5 c2 -7 -3 -12 -12 -12 -9 0 -16 7 -16 16 0 17
22 14 28 -4z m252 3 c0 -8 -4 -15 -10 -15 -5 0 -10 7 -10 15 0 8 5 15 10 15 6
0 10 -7 10 -15z m200 -6 c0 -5 -7 -9 -15 -9 -9 0 -12 6 -9 15 6 15 24 11 24
-6z m197 -25 c-9 -9 -28 6 -21 18 4 6 10 6 17 -1 6 -6 8 -13 4 -17z m-712 6
c-3 -5 -10 -10 -16 -10 -5 0 -9 5 -9 10 0 6 7 10 16 10 8 0 12 -4 9 -10z m195
-5 c0 -8 -4 -15 -9 -15 -13 0 -22 16 -14 24 11 11 23 6 23 -9z m255 5 c3 -5 1
-10 -4 -10 -6 0 -11 5 -11 10 0 6 2 10 4 10 3 0 8 -4 11 -10z m465 -5 c0 -8
-7 -15 -15 -15 -8 0 -15 7 -15 15 0 8 7 15 15 15 8 0 15 -7 15 -15z m-980 -5
c0 -5 -4 -10 -10 -10 -5 0 -10 5 -10 10 0 6 5 10 10 10 6 0 10 -4 10 -10z
m710 0 c0 -5 -4 -10 -10 -10 -5 0 -10 5 -10 10 0 6 5 10 10 10 6 0 10 -4 10
-10z m206 -27 c-10 -10 -19 5 -10 18 6 11 8 11 12 0 2 -7 1 -15 -2 -18z
m-1030 6 c8 -14 -18 -31 -30 -19 -9 9 0 30 14 30 5 0 12 -5 16 -11z m58 -4
c-4 -8 -11 -12 -16 -9 -6 4 -5 10 3 15 19 12 19 11 13 -6z m716 5 c0 -5 -5
-10 -11 -10 -5 0 -7 5 -4 10 3 6 8 10 11 10 2 0 4 -4 4 -10z m205 -10 c-3 -5
-13 -10 -21 -10 -8 0 -14 5 -14 10 0 6 9 10 21 10 11 0 17 -4 14 -10z m190 0
c3 -5 3 -15 -1 -21 -6 -11 -23 6 -24 24 0 10 18 9 25 -3z m-255 -15 c0 -8 -4
-15 -10 -15 -5 0 -10 7 -10 15 0 8 5 15 10 15 6 0 10 -7 10 -15z m-775 -16 c0
-7 -8 -15 -17 -17 -18 -3 -25 18 -11 32 10 10 28 1 28 -15z m975 0 c0 -5 -7
-9 -15 -9 -15 0 -20 12 -9 23 8 8 24 -1 24 -14z m-1956 -10 c-3 -5 -10 -7 -15
-3 -5 3 -7 10 -3 15 3 5 10 7 15 3 5 -3 7 -10 3 -15z m459 7 c4 -10 1 -13 -9
-9 -15 6 -19 23 -5 23 5 0 11 -7 14 -14z m1237 4 c0 -5 -7 -10 -15 -10 -8 0
-15 5 -15 10 0 6 7 10 15 10 8 0 15 -4 15 -10z m-780 -15 c0 -8 -4 -15 -9 -15
-5 0 -11 7 -15 15 -3 9 0 15 9 15 8 0 15 -7 15 -15z m978 4 c-2 -6 -8 -10 -13
-10 -5 0 -11 4 -13 10 -2 6 4 11 13 11 9 0 15 -5 13 -11z m-532 -26 c-10 -10
-19 5 -10 18 6 11 8 11 12 0 2 -7 1 -15 -2 -18z m724 12 c0 -8 -7 -15 -15 -15
-16 0 -20 12 -8 23 11 12 23 8 23 -8z m210 -16 c0 -5 -9 -9 -20 -9 -19 0 -27
20 -13 33 7 8 33 -11 33 -24z m-2160 11 c0 -5 -4 -10 -10 -10 -5 0 -10 5 -10
10 0 6 5 10 10 10 6 0 10 -4 10 -10z m260 0 c0 -5 -4 -10 -10 -10 -5 0 -10 5
-10 10 0 6 5 10 10 10 6 0 10 -4 10 -10z m1170 -6 c0 -8 -5 -12 -10 -9 -6 4
-8 11 -5 16 9 14 15 11 15 -7z m265 7 c7 -12 -12 -24 -25 -16 -11 7 -4 25 10
25 5 0 11 -4 15 -9z m-1760 -11 c3 -5 1 -10 -4 -10 -6 0 -11 5 -11 10 0 6 2
10 4 10 3 0 8 -4 11 -10z m1690 0 c3 -5 1 -10 -4 -10 -6 0 -11 5 -11 10 0 6 2
10 4 10 3 0 8 -4 11 -10z m265 0 c0 -5 -7 -10 -16 -10 -8 0 -12 5 -9 10 3 6
10 10 16 10 5 0 9 -4 9 -10z m200 -16 c0 -17 -22 -14 -28 4 -2 7 3 12 12 12 9
0 16 -7 16 -16z m-1764 -21 c-10 -10 -19 5 -10 18 6 11 8 11 12 0 2 -7 1 -15
-2 -18z m1244 11 c0 -8 -5 -12 -10 -9 -6 4 -8 11 -5 16 9 14 15 11 15 -7z
m260 6 c0 -5 -4 -10 -10 -10 -5 0 -10 5 -10 10 0 6 5 10 10 10 6 0 10 -4 10
-10z m460 -10 c0 -22 -7 -25 -29 -11 -16 10 -6 31 15 31 8 0 14 -9 14 -20z
m-265 0 c-3 -5 -10 -10 -16 -10 -5 0 -9 5 -9 10 0 6 7 10 16 10 8 0 12 -4 9
-10z m-770 -19 c-3 -6 -11 -11 -16 -11 -5 0 -4 6 3 14 14 16 24 13 13 -3z
m985 10 c0 -12 -20 -25 -27 -18 -7 7 6 27 18 27 5 0 9 -4 9 -9z m-2228 -23
c-7 -7 -12 -8 -12 -2 0 14 12 26 19 19 2 -3 -1 -11 -7 -17z m1443 12 c3 -6 -1
-13 -10 -16 -19 -8 -30 0 -20 15 8 14 22 14 30 1z m255 -5 c0 -8 -4 -15 -10
-15 -5 0 -10 7 -10 15 0 8 5 15 10 15 6 0 10 -7 10 -15z m260 5 c0 -5 -4 -10
-10 -10 -5 0 -10 5 -10 10 0 6 5 10 10 10 6 0 10 -4 10 -10z m205 0 c3 -6 -1
-13 -10 -16 -19 -8 -30 0 -20 15 8 14 22 14 30 1z m265 1 c0 -5 -6 -13 -13
-19 -15 -13 -42 1 -33 17 8 13 46 15 46 2z m-2477 -16 c1 -5 -6 -11 -15 -13
-11 -2 -18 3 -18 13 0 17 30 18 33 0z m1437 -5 c0 -5 -4 -12 -10 -15 -5 -3
-10 -4 -10 -1 0 2 -3 12 -6 20 -5 12 -2 15 10 10 9 -3 16 -10 16 -14z m250 10
c0 -5 -4 -10 -10 -10 -5 0 -10 5 -10 10 0 6 5 10 10 10 6 0 10 -4 10 -10z
m260 0 c0 -5 -7 -10 -15 -10 -8 0 -15 5 -15 10 0 6 7 10 15 10 8 0 15 -4 15
-10z m464 1 c3 -5 -1 -14 -9 -21 -8 -7 -15 -10 -15 -7 0 3 -3 12 -6 21 -7 17
20 23 30 7z m-529 -10 c3 -5 1 -12 -5 -16 -5 -3 -10 1 -10 9 0 18 6 21 15 7z
m265 0 c0 -17 -18 -21 -24 -6 -3 9 0 15 9 15 8 0 15 -4 15 -9z m-1750 -16 c0
-8 -9 -15 -20 -15 -13 0 -18 5 -14 15 4 8 12 15 20 15 8 0 14 -7 14 -15z m970
-5 c0 -21 -15 -27 -25 -10 -7 12 2 30 16 30 5 0 9 -9 9 -20z m260 -1 c0 -5 -7
-9 -15 -9 -15 0 -20 12 -9 23 8 8 24 -1 24 -14z m715 11 c11 -17 -5 -32 -21
-19 -7 6 -11 15 -8 20 7 12 21 11 29 -1z m205 -15 c0 -19 -20 -29 -31 -18 -14
14 0 43 17 36 8 -3 14 -11 14 -18z m-2415 5 c3 -5 -1 -10 -10 -10 -9 0 -13 5
-10 10 3 6 8 10 10 10 2 0 7 -4 10 -10z m1175 -16 c0 -16 -16 -19 -25 -4 -8
13 4 32 16 25 5 -4 9 -13 9 -21z m255 -4 c-5 -8 -11 -8 -17 -2 -6 6 -7 16 -3
22 5 8 11 8 17 2 6 -6 7 -16 3 -22z m259 9 c-3 -5 -10 -7 -15 -3 -5 3 -7 10
-3 15 3 5 10 7 15 3 5 -3 7 -10 3 -15z m264 10 c-2 -6 -8 -10 -13 -10 -5 0
-11 4 -13 10 -2 6 4 11 13 11 9 0 15 -5 13 -11z m-72 -26 c-10 -10 -19 5 -10
18 6 11 8 11 12 0 2 -7 1 -15 -2 -18z m274 18 c0 -14 -18 -23 -30 -16 -6 4 -8
11 -5 16 8 12 35 12 35 0z m194 -31 c-14 -14 -38 5 -30 26 6 16 8 16 23 1 11
-11 14 -20 7 -27z m-2414 15 c0 -8 -4 -15 -9 -15 -13 0 -22 16 -14 24 11 11
23 6 23 -9z m270 11 c0 -3 -4 -8 -10 -11 -5 -3 -10 -1 -10 4 0 6 5 11 10 11 6
0 10 -2 10 -4z m460 -17 c0 -5 -7 -9 -15 -9 -15 0 -20 12 -9 23 8 8 24 -1 24
-14z m708 -4 c3 -15 -1 -17 -22 -11 -15 4 -26 2 -26 -4 0 -12 -47 -13 -54 -1
-10 16 22 35 38 22 10 -9 16 -8 26 4 16 19 34 15 38 -10z m1178 -14 c-9 -13
-16 -14 -35 -2 -12 8 -13 12 -1 26 12 14 15 14 28 1 8 -8 11 -19 8 -25z
m-2416 19 c0 -5 -4 -10 -10 -10 -5 0 -10 5 -10 10 0 6 5 10 10 10 6 0 10 -4
10 -10z m1691 -3 c-1 -12 -15 -9 -19 4 -3 6 1 10 8 8 6 -3 11 -8 11 -12z m262
7 c11 -11 -3 -24 -18 -18 -8 4 -12 10 -9 15 6 11 18 12 27 3z m200 -9 c4 -8 3
-16 -1 -19 -13 -8 -35 11 -28 23 10 15 23 14 29 -4z m-723 -5 c0 -5 -4 -10
-10 -10 -5 0 -10 5 -10 10 0 6 5 10 10 10 6 0 10 -4 10 -10z m663 -26 c-4 -10
-9 -12 -15 -6 -12 12 -1 35 12 27 5 -3 6 -13 3 -21z m265 14 c-7 -19 -38 -22
-38 -4 0 10 9 16 21 16 12 0 19 -5 17 -12z m-980 -9 c-2 -6 -8 -10 -13 -10 -5
0 -11 4 -13 10 -2 6 4 11 13 11 9 0 15 -5 13 -11z m452 -5 c0 -8 -4 -12 -10
-9 -5 3 -10 10 -10 16 0 5 5 9 10 9 6 0 10 -7 10 -16z m460 12 c0 -15 -14 -35
-21 -30 -15 9 -10 34 6 34 8 0 15 -2 15 -4z m270 -5 c0 -5 -6 -13 -13 -19 -15
-13 -42 1 -33 17 8 13 46 15 46 2z m-2735 -30 c-9 -16 -25 -3 -18 15 4 10 9
12 15 6 6 -6 7 -15 3 -21z m55 19 c0 -5 -2 -10 -4 -10 -3 0 -8 5 -11 10 -3 6
-1 10 4 10 6 0 11 -4 11 -10z m2150 6 c0 -3 -4 -8 -10 -11 -5 -3 -10 -1 -10 4
0 6 5 11 10 11 6 0 10 -2 10 -4z m465 -17 c0 -7 -8 -15 -17 -17 -12 -2 -15 2
-11 18 6 23 28 22 28 -1z m-265 -3 c0 -17 -14 -29 -23 -20 -8 8 3 34 14 34 5
0 9 -6 9 -14z m459 -22 c-6 -7 -17 -10 -25 -7 -17 6 -18 15 -2 31 17 17 43 -5
27 -24z m-2465 20 c14 -5 12 -34 -3 -34 -16 1 -33 19 -27 29 8 13 9 13 30 5z
m247 -17 c-13 -13 -26 -3 -16 12 3 6 11 8 17 5 6 -4 6 -10 -1 -17z m986 6 c4
-11 -26 -27 -35 -19 -2 3 -2 12 2 21 6 18 27 16 33 -2z m63 13 c0 -3 -4 -8
-10 -11 -5 -3 -10 -1 -10 4 0 6 5 11 10 11 6 0 10 -2 10 -4z m190 -11 c0 -8
-4 -15 -10 -15 -5 0 -10 7 -10 15 0 8 5 15 10 15 6 0 10 -7 10 -15z m260 0 c0
-8 -4 -15 -9 -15 -13 0 -22 16 -14 24 11 11 23 6 23 -9z m194 9 c18 -7 12 -24
-10 -24 -8 0 -14 7 -14 15 0 17 2 18 24 9z m266 -9 c0 -8 -9 -15 -20 -15 -20
0 -26 11 -13 23 12 13 33 7 33 -8z m-2470 -16 c0 -6 -4 -7 -10 -4 -5 3 -10 11
-10 16 0 6 5 7 10 4 6 -3 10 -11 10 -16z m1950 6 c0 -9 -6 -12 -15 -9 -8 4
-12 10 -9 15 8 14 24 10 24 -6z m455 -3 c0 -18 -20 -15 -23 4 -3 10 1 15 10
12 7 -3 13 -10 13 -16z m268 11 c4 -3 2 -12 -4 -20 -9 -10 -15 -10 -25 -2 -8
6 -11 15 -8 20 6 11 28 12 37 2z m-983 -13 c0 -5 -2 -10 -4 -10 -3 0 -8 5 -11
10 -3 6 -1 10 4 10 6 0 11 -4 11 -10z m453 4 c9 -9 -4 -35 -14 -28 -5 3 -9 12
-9 20 0 14 12 19 23 8z m-2203 -19 c0 -8 -7 -15 -15 -15 -16 0 -20 12 -8 23
11 12 23 8 23 -8z m260 5 c0 -5 -4 -10 -10 -10 -5 0 -10 5 -10 10 0 6 5 10 10
10 6 0 10 -4 10 -10z m1684 -11 c-3 -5 -10 -7 -15 -3 -5 3 -7 10 -3 15 3 5 10
7 15 3 5 -3 7 -10 3 -15z m462 10 c10 -17 -13 -36 -27 -22 -12 12 -4 33 11 33
5 0 12 -5 16 -11z m258 3 c9 -14 -9 -31 -23 -23 -7 5 -10 14 -7 20 8 13 23 14
30 3z m-1034 -28 c0 -8 -7 -14 -15 -14 -15 0 -21 21 -9 33 10 9 24 -2 24 -19z
m60 16 c0 -5 -7 -10 -15 -10 -8 0 -15 5 -15 10 0 6 7 10 15 10 8 0 15 -4 15
-10z m452 -5 c0 -5 -5 -11 -11 -13 -6 -2 -11 4 -11 13 0 9 5 15 11 13 6 -2 11
-8 11 -13z m458 0 c10 -13 9 -15 -8 -15 -15 0 -20 5 -16 15 4 8 7 15 9 15 1 0
8 -7 15 -15z m268 -2 c2 -8 -5 -13 -17 -13 -12 0 -21 6 -21 16 0 18 31 15 38
-3z m-983 -3 c-3 -5 -10 -10 -16 -10 -5 0 -9 5 -9 10 0 6 7 10 16 10 8 0 12
-4 9 -10z m460 1 c7 -12 -12 -24 -25 -16 -11 7 -4 25 10 25 5 0 11 -4 15 -9z
m-2005 -31 c0 -13 -5 -17 -20 -13 -19 5 -26 23 -14 36 11 11 34 -5 34 -23z
m1740 20 c0 -5 -4 -10 -10 -10 -5 0 -10 5 -10 10 0 6 5 10 10 10 6 0 10 -4 10
-10z m723 -5 c1 -5 -6 -11 -15 -13 -11 -2 -18 3 -18 13 0 17 30 18 33 0z m197
-11 c0 -16 -16 -19 -25 -4 -8 13 4 32 16 25 5 -4 9 -13 9 -21z m-2870 6 c0 -5
-2 -10 -4 -10 -3 0 -8 5 -11 10 -3 6 -1 10 4 10 6 0 11 -4 11 -10z m1690 0 c0
-5 -2 -10 -4 -10 -3 0 -8 5 -11 10 -3 6 -1 10 4 10 6 0 11 -4 11 -10z m200 -5
c0 -8 -4 -15 -10 -15 -5 0 -10 7 -10 15 0 8 5 15 10 15 6 0 10 -7 10 -15z
m260 0 c0 -9 -6 -12 -15 -9 -8 4 -12 10 -9 15 8 14 24 10 24 -6z m260 5 c0 -5
-7 -10 -15 -10 -8 0 -15 5 -15 10 0 6 7 10 15 10 8 0 15 -4 15 -10z m200 -11
c0 -5 -7 -9 -15 -9 -15 0 -20 12 -9 23 8 8 24 -1 24 -14z m-2670 1 c0 -5 -4
-10 -10 -10 -5 0 -10 5 -10 10 0 6 5 10 10 10 6 0 10 -4 10 -10z m1685 0 c3
-5 1 -10 -4 -10 -6 0 -11 5 -11 10 0 6 2 10 4 10 3 0 8 -4 11 -10z m921 -27
c-10 -10 -19 5 -10 18 6 11 8 11 12 0 2 -7 1 -15 -2 -18z m474 10 c0 -2 -6
-11 -14 -19 -17 -16 -31 -2 -22 21 5 13 36 11 36 -2z m-1442 -4 c-2 -6 -8 -10
-13 -10 -5 0 -11 4 -13 10 -2 6 4 11 13 11 9 0 15 -5 13 -11z m712 1 c0 -5 -4
-10 -10 -10 -5 0 -10 5 -10 10 0 6 5 10 10 10 6 0 10 -4 10 -10z m460 1 c0
-12 -20 -25 -27 -18 -7 7 6 27 18 27 5 0 9 -4 9 -9z m60 -1 c0 -5 -4 -10 -10
-10 -5 0 -10 5 -10 10 0 6 5 10 10 10 6 0 10 -4 10 -10z m-2730 -4 c0 -3 -4
-8 -10 -11 -5 -3 -10 -1 -10 4 0 6 5 11 10 11 6 0 10 -2 10 -4z m1690 0 c0 -3
-4 -8 -10 -11 -5 -3 -10 -1 -10 4 0 6 5 11 10 11 6 0 10 -2 10 -4z m260 0 c0
-3 -4 -8 -10 -11 -5 -3 -10 -1 -10 4 0 6 5 11 10 11 6 0 10 -2 10 -4z m912
-28 c-9 -9 -12 -7 -12 12 0 19 3 21 12 12 9 -9 9 -15 0 -24z m-2917 1 c-10
-15 -25 -10 -19 6 4 8 10 12 15 9 5 -3 7 -10 4 -15z m204 8 c13 -16 5 -27 -21
-27 -20 0 -21 1 -12 24 7 20 18 20 33 3z m1482 -10 c-13 -13 -26 -3 -16 12 3
6 11 8 17 5 6 -4 6 -10 -1 -17z m256 1 c-3 -8 -6 -5 -6 6 -1 11 2 17 5 13 3
-3 4 -12 1 -19z m723 7 c0 -8 -4 -15 -10 -15 -5 0 -10 7 -10 15 0 8 5 15 10
15 6 0 10 -7 10 -15z m-2279 -18 c-13 -13 -26 -3 -16 12 3 6 11 8 17 5 6 -4 6
-10 -1 -17z m1249 3 c0 -5 -5 -12 -11 -16 -14 -8 -33 11 -25 25 7 11 36 4 36
-9z m258 2 c2 -7 -6 -12 -17 -12 -21 0 -27 11 -14 24 9 9 26 2 31 -12z m257 9
c7 -12 -12 -24 -25 -16 -11 7 -4 25 10 25 5 0 11 -4 15 -9z m255 0 c0 -6 -4
-13 -10 -16 -5 -3 -10 1 -10 9 0 9 5 16 10 16 6 0 10 -4 10 -9z m200 -12 c0
-5 -7 -9 -15 -9 -15 0 -20 12 -9 23 8 8 24 -1 24 -14z m260 6 c0 -8 -9 -15
-20 -15 -20 0 -26 11 -13 23 12 13 33 7 33 -8z m200 -5 c0 -13 -19 -22 -30
-15 -14 9 0 34 16 28 8 -3 14 -9 14 -13z m-977 4 c3 -3 3 -12 0 -20 -4 -11 -9
-12 -19 -3 -8 6 -11 15 -8 20 6 10 18 12 27 3z m257 -4 c0 -5 -7 -10 -15 -10
-8 0 -15 5 -15 10 0 6 7 10 15 10 8 0 15 -4 15 -10z m451 -3 c-1 -12 -15 -9
-19 4 -3 6 1 10 8 8 6 -3 11 -8 11 -12z m-2661 -7 c0 -5 -4 -10 -10 -10 -5 0
-10 5 -10 10 0 6 5 10 10 10 6 0 10 -4 10 -10z m1430 -10 c0 -11 -7 -20 -15
-20 -15 0 -21 21 -8 33 12 13 23 7 23 -13z m260 5 c0 -8 -4 -15 -10 -15 -5 0
-10 7 -10 15 0 8 5 15 10 15 6 0 10 -7 10 -15z m713 -10 c-3 -8 -9 -15 -14
-15 -10 0 -12 24 -3 33 11 11 24 -3 17 -18z m-261 0 c0 -5 -5 -11 -11 -13 -6
-2 -11 4 -11 13 0 9 5 15 11 13 6 -2 11 -8 11 -13z m718 0 c0 -8 -4 -15 -9
-15 -13 0 -22 16 -14 24 11 11 23 6 23 -9z m-2920 -5 c0 -5 -4 -10 -10 -10 -5
0 -10 5 -10 10 0 6 5 10 10 10 6 0 10 -4 10 -10z m1690 -6 c0 -9 -5 -14 -12
-12 -18 6 -21 28 -4 28 9 0 16 -7 16 -16z m456 5 c3 -6 2 -15 -2 -19 -12 -12
-38 5 -30 19 9 14 23 14 32 0z m264 -4 c0 -8 -6 -15 -14 -15 -17 0 -28 14 -19
24 12 12 33 6 33 -9z m250 5 c0 -5 -4 -10 -10 -10 -5 0 -10 5 -10 10 0 6 5 10
10 10 6 0 10 -4 10 -10z m200 -11 c0 -5 -7 -9 -15 -9 -15 0 -20 12 -9 23 8 8
24 -1 24 -14z m260 6 c0 -8 -7 -15 -15 -15 -8 0 -15 7 -15 15 0 8 7 15 15 15
8 0 15 -7 15 -15z m-3180 -10 c0 -8 -4 -15 -9 -15 -13 0 -22 16 -14 24 11 11
23 6 23 -9z m1690 -6 c0 -5 -7 -9 -15 -9 -15 0 -20 12 -9 23 8 8 24 -1 24 -14z
m970 0 c0 -5 -7 -9 -15 -9 -15 0 -20 12 -9 23 8 8 24 -1 24 -14z m728 9 c-3
-7 -14 -14 -26 -16 -16 -3 -20 1 -16 12 7 19 48 22 42 4z m-3438 -18 c0 -14
-17 -21 -34 -14 -12 5 -14 10 -6 20 12 13 40 9 40 -6z m252 5 c0 -5 -5 -11
-11 -13 -6 -2 -11 4 -11 13 0 9 5 15 11 13 6 -2 11 -8 11 -13z m2198 5 c0 -5
-4 -10 -10 -10 -5 0 -10 5 -10 10 0 6 5 10 10 10 6 0 10 -4 10 -10z m207 -14
c-2 -6 -13 -11 -25 -11 -35 -1 -49 -22 -29 -42 15 -16 18 -15 37 2 15 14 23
16 32 7 15 -15 -7 -43 -28 -35 -8 3 -20 0 -28 -6 -20 -17 -48 -3 -40 21 3 10
0 26 -7 34 -14 17 -10 22 19 27 12 2 27 8 33 14 14 14 41 5 36 -11z m508 14
c3 -5 -1 -10 -10 -10 -9 0 -13 5 -10 10 3 6 8 10 10 10 2 0 7 -4 10 -10z
m-1481 -15 c-7 -16 -30 -20 -38 -6 -7 11 4 21 25 21 12 0 16 -5 13 -15z m706
0 c0 -8 -4 -15 -10 -15 -5 0 -10 7 -10 15 0 8 5 15 10 15 6 0 10 -7 10 -15z
m520 5 c0 -5 -7 -10 -16 -10 -8 0 -12 5 -9 10 3 6 10 10 16 10 5 0 9 -4 9 -10z
m464 -5 c-4 -8 -12 -15 -20 -15 -8 0 -14 7 -14 15 0 8 9 15 20 15 13 0 18 -5
14 -15z m-3194 -5 c0 -5 -2 -10 -4 -10 -3 0 -8 5 -11 10 -3 6 -1 10 4 10 6 0
11 -4 11 -10z m3130 -5 c0 -8 -4 -15 -10 -15 -5 0 -7 7 -4 15 4 8 8 15 10 15
2 0 4 -7 4 -15z m-3180 -21 c0 -16 -16 -19 -25 -4 -8 13 4 32 16 25 5 -4 9
-13 9 -21z m2202 0 c-7 -12 -11 -13 -17 -4 -4 7 -2 16 6 21 18 11 23 4 11 -17z
m-2007 6 c3 -5 -1 -10 -10 -10 -9 0 -13 5 -10 10 3 6 8 10 10 10 2 0 7 -4 10
-10z m2215 1 c0 -5 -6 -14 -14 -20 -16 -13 -32 2 -21 19 8 12 35 13 35 1z
m200 -12 c0 -11 -27 -12 -34 0 -3 4 -3 11 0 14 8 8 34 -3 34 -14z m60 12 c0
-14 -18 -23 -30 -16 -6 4 -8 11 -5 16 8 12 35 12 35 0z m185 -1 c3 -5 -1 -10
-10 -10 -9 0 -13 5 -10 10 3 6 8 10 10 10 2 0 7 -4 10 -10z m65 0 c0 -5 -5
-10 -11 -10 -5 0 -7 5 -4 10 3 6 8 10 11 10 2 0 4 -4 4 -10z m195 0 c3 -5 -1
-10 -10 -10 -9 0 -13 5 -10 10 3 6 8 10 10 10 2 0 7 -4 10 -10z m263 -2 c-6
-18 -28 -21 -28 -4 0 9 7 16 16 16 9 0 14 -5 12 -12z m-3438 -19 c0 -24 -23
-21 -28 4 -2 10 3 17 12 17 10 0 16 -9 16 -21z m2406 10 c3 -6 2 -15 -4 -21
-6 -6 -11 -2 -15 11 -5 22 7 29 19 10z m972 -7 c6 -18 -15 -14 -22 4 -4 10 -1
14 6 12 6 -2 14 -10 16 -16z m-3192 -19 c-10 -10 -19 5 -10 18 6 11 8 11 12 0
2 -7 1 -15 -2 -18z m2674 7 c0 -11 -4 -20 -9 -20 -14 0 -23 18 -16 30 10 17
25 11 25 -10z m716 9 c8 -14 -11 -33 -25 -25 -11 7 -4 36 9 36 5 0 12 -5 16
-11z m-3436 -25 c0 -8 -9 -14 -20 -14 -19 0 -27 19 -14 33 10 9 34 -4 34 -19z
m255 16 c3 -5 -1 -10 -10 -10 -9 0 -13 5 -10 10 3 6 8 10 10 10 2 0 7 -4 10
-10z m1945 -5 c0 -8 -7 -15 -15 -15 -16 0 -20 12 -8 23 11 12 23 8 23 -8z
m459 1 c7 -9 8 -17 2 -20 -15 -10 -40 5 -34 20 7 18 17 18 32 0z m261 -7 c0
-5 -7 -9 -15 -9 -15 0 -20 12 -9 23 8 8 24 -1 24 -14z m252 6 c0 -5 -5 -11
-11 -13 -6 -2 -11 4 -11 13 0 9 5 15 11 13 6 -2 11 -8 11 -13z m-1035 -10 c7
-20 -2 -29 -21 -22 -9 4 -13 13 -10 22 8 19 23 19 31 0z m1236 9 c11 -11 -3
-24 -18 -18 -8 4 -12 10 -9 15 6 11 18 12 27 3z m-3439 -12 c2 -4 1 -14 -4
-22 -7 -11 -12 -12 -21 -3 -6 6 -8 16 -5 22 8 13 23 14 30 3z m2658 -24 c-15
-15 -26 -4 -18 18 5 13 9 15 18 6 9 -9 9 -15 0 -24z m266 20 c-6 -18 -28 -21
-28 -4 0 9 7 16 16 16 9 0 14 -5 12 -12z m710 -5 c-4 -22 -22 -20 -26 1 -2 10
3 16 13 16 10 0 15 -7 13 -17z m-768 -19 c0 -8 -9 -14 -20 -14 -19 0 -27 19
-14 33 10 9 34 -4 34 -19z m505 17 c3 -5 1 -12 -5 -16 -5 -3 -10 1 -10 9 0 18
6 21 15 7z m-3175 -16 c0 -8 -4 -15 -9 -15 -13 0 -22 16 -14 24 11 11 23 6 23
-9z m2404 0 c4 -10 -1 -15 -14 -15 -20 0 -26 11 -13 23 10 11 20 8 27 -8z
m516 5 c0 -5 -4 -10 -10 -10 -5 0 -10 5 -10 10 0 6 5 10 10 10 6 0 10 -4 10
-10z m460 -5 c0 -8 -7 -15 -15 -15 -8 0 -15 7 -15 15 0 8 7 15 15 15 8 0 15
-7 15 -15z m-3440 -16 c0 -5 -7 -9 -15 -9 -15 0 -20 12 -9 23 8 8 24 -1 24
-14z m2670 -4 c-12 -15 -30 -12 -30 6 0 5 10 9 21 9 18 0 19 -2 9 -15z m-2720
-4 c0 -6 -5 -13 -10 -16 -15 -9 -43 3 -35 15 8 13 45 13 45 1z m2139 0 c16
-10 6 -31 -15 -31 -8 0 -14 9 -14 20 0 22 7 25 29 11z m515 -6 c-7 -17 -20
-20 -28 -6 -7 10 3 21 20 21 8 0 11 -6 8 -15z m254 4 c-2 -6 -8 -10 -13 -10
-5 0 -11 4 -13 10 -2 6 4 11 13 11 9 0 15 -5 13 -11z m720 0 c-2 -6 -8 -10
-13 -10 -5 0 -11 4 -13 10 -2 6 4 11 13 11 9 0 15 -5 13 -11z m-1034 -33 c-3
-9 -10 -13 -16 -10 -5 3 -4 12 3 20 15 18 22 13 13 -10z m201 14 c4 -6 1 -17
-5 -26 -10 -11 -16 -12 -26 -3 -11 9 -11 15 -3 25 14 17 25 18 34 4z m982 -7
c5 -13 -25 -26 -38 -17 -6 3 -5 11 2 20 13 16 31 14 36 -3z m-3647 -8 c0 -8
-4 -15 -9 -15 -13 0 -22 16 -14 24 11 11 23 6 23 -9z m2405 5 c3 -6 -1 -13
-10 -16 -19 -8 -30 0 -20 15 8 14 22 14 30 1z m-2465 -21 c0 -5 -7 -9 -15 -9
-15 0 -20 12 -9 23 8 8 24 -1 24 -14z m3645 11 c3 -5 -1 -10 -9 -10 -8 0 -18
5 -21 10 -3 6 1 10 9 10 8 0 18 -4 21 -10z m-3708 -16 c7 -20 -8 -36 -25 -25
-14 8 -6 41 9 41 5 0 12 -7 16 -16z m2669 -23 c-9 -13 -16 -14 -35 -2 -12 8
-13 12 -1 26 12 14 15 14 28 1 8 -8 11 -19 8 -25z m249 10 c-9 -16 -25 -3 -18
15 4 10 9 12 15 6 6 -6 7 -15 3 -21z m-766 6 c14 -18 -4 -36 -30 -30 -22 6
-24 14 -7 31 15 15 23 15 37 -1z m-1963 -24 c-10 -10 -19 5 -10 18 6 11 8 11
12 0 2 -7 1 -15 -2 -18z m2411 19 c7 -4 9 -13 4 -21 -10 -16 -31 -6 -31 15 0
16 9 18 27 6z m-2462 -21 c7 -12 -12 -24 -25 -16 -11 7 -4 25 10 25 5 0 11 -4
15 -9z m-59 -12 c3 -6 2 -15 -2 -19 -12 -12 -38 5 -30 19 9 14 23 14 32 0z
m2904 2 c0 -6 -4 -13 -10 -16 -5 -3 -10 1 -10 9 0 9 5 16 10 16 6 0 10 -4 10
-9z m-50 -31 c0 -5 -4 -10 -10 -10 -5 0 -10 5 -10 10 0 6 5 10 10 10 6 0 10
-4 10 -10z m-2720 -4 c0 -3 -4 -8 -10 -11 -5 -3 -10 -1 -10 4 0 6 5 11 10 11
6 0 10 -2 10 -4z m-60 -21 c0 -8 -4 -15 -9 -15 -13 0 -22 16 -14 24 11 11 23
6 23 -9z m405 -14 c10 -17 -12 -21 -25 -6 -10 12 -10 15 3 15 9 0 18 -4 22 -9z
m-325 -32 c0 -5 -7 -9 -15 -9 -15 0 -20 12 -9 23 8 8 24 -1 24 -14z m2660 6
c0 -8 -4 -15 -9 -15 -13 0 -22 16 -14 24 11 11 23 6 23 -9z m780 11 c0 -3 -4
-8 -10 -11 -5 -3 -10 -1 -10 4 0 6 5 11 10 11 6 0 10 -2 10 -4z m-70 -16 c0
-5 -4 -10 -10 -10 -5 0 -10 5 -10 10 0 6 5 10 10 10 6 0 10 -4 10 -10z m-3030
-40 c0 -16 -6 -20 -28 -18 -15 1 -33 -1 -40 -6 -22 -13 -13 11 11 27 32 23 57
21 57 -3z m2900 10 c0 -5 -5 -10 -11 -10 -5 0 -7 5 -4 10 3 6 8 10 11 10 2 0
4 -4 4 -10z m-3160 -16 c0 -2 -7 -4 -15 -4 -8 0 -15 4 -15 10 0 5 7 7 15 4 8
-4 15 -8 15 -10z m2598 -6 c-3 -7 -13 -15 -24 -17 -16 -3 -17 -1 -5 13 16 19
34 21 29 4z m-2660 -10 c-3 -7 -11 -13 -18 -13 -7 0 -15 6 -17 13 -3 7 4 12
17 12 13 0 20 -5 18 -12z m135 -23 c4 -8 3 -16 -1 -19 -13 -8 -35 11 -28 23
10 15 23 14 29 -4z m197 -11 c0 -8 -7 -14 -15 -14 -15 0 -21 21 -9 33 10 9 24
-2 24 -19z m-252 -6 c-7 -19 -38 -22 -38 -4 0 10 9 16 21 16 12 0 19 -5 17
-12z m182 -8 c0 -5 -5 -10 -11 -10 -5 0 -7 5 -4 10 3 6 8 10 11 10 2 0 4 -4 4
-10z m-50 -26 c0 -8 -7 -14 -15 -14 -15 0 -21 21 -9 33 10 9 24 -2 24 -19z
m2390 6 c0 -5 -5 -10 -11 -10 -5 0 -7 5 -4 10 3 6 8 10 11 10 2 0 4 -4 4 -10z
m265 0 c3 -5 1 -10 -4 -10 -6 0 -11 5 -11 10 0 6 2 10 4 10 3 0 8 -4 11 -10z
m-2715 -20 c0 -22 -1 -23 -24 -14 -18 7 -10 34 10 34 8 0 14 -9 14 -20z m-63
2 c10 -7 10 -12 0 -25 -15 -20 -43 -7 -34 17 7 18 16 20 34 8z m253 -12 c0 -5
-4 -10 -10 -10 -5 0 -10 5 -10 10 0 6 5 10 10 10 6 0 10 -4 10 -10z m2620 -9
c0 -12 -20 -25 -27 -18 -7 7 6 27 18 27 5 0 9 -4 9 -9z m-2734 -12 c10 -17
-13 -36 -27 -22 -12 12 -4 33 11 33 5 0 12 -5 16 -11z m64 7 c0 -11 -19 -15
-25 -6 -3 5 1 10 9 10 9 0 16 -2 16 -4z m2598 -17 c-2 -6 -8 -10 -13 -10 -5 0
-11 4 -13 10 -2 6 4 11 13 11 9 0 15 -5 13 -11z m-2722 -10 c10 -17 -13 -36
-27 -22 -12 12 -4 33 11 33 5 0 12 -5 16 -11z m2664 -10 c0 -5 -4 -9 -10 -9
-5 0 -10 7 -10 16 0 8 5 12 10 9 6 -3 10 -10 10 -16z m-2469 -14 c-1 -15 -24
-12 -29 3 -3 9 2 13 12 10 10 -1 17 -7 17 -13z m2146 -11 c-9 -9 -28 6 -21 18
4 6 10 6 17 -1 6 -6 8 -13 4 -17z m63 22 c0 -3 -4 -8 -10 -11 -5 -3 -10 -1
-10 4 0 6 5 11 10 11 6 0 10 -2 10 -4z m194 -17 c-3 -5 -10 -7 -15 -3 -5 3 -7
10 -3 15 3 5 10 7 15 3 5 -3 7 -10 3 -15z m-2456 -1 c-7 -19 -38 -22 -38 -4 0
10 9 16 21 16 12 0 19 -5 17 -12z m-62 -9 c10 -17 -13 -36 -27 -22 -12 12 -4
33 11 33 5 0 12 -5 16 -11z m2454 1 c0 -5 -2 -10 -4 -10 -3 0 -8 5 -11 10 -3
6 -1 10 4 10 6 0 11 -4 11 -10z m-2256 -40 c-14 -14 -38 5 -30 26 6 16 8 16
23 1 11 -11 14 -20 7 -27z m46 30 c0 -5 -4 -10 -10 -10 -5 0 -10 5 -10 10 0 6
5 10 10 10 6 0 10 -4 10 -10z m1624 -21 c-3 -5 -10 -7 -15 -3 -5 3 -7 10 -3
15 3 5 10 7 15 3 5 -3 7 -10 3 -15z m526 11 c0 -5 -4 -10 -10 -10 -5 0 -10 5
-10 10 0 6 5 10 10 10 6 0 10 -4 10 -10z m206 -1 c3 -6 2 -15 -2 -19 -12 -12
-38 5 -30 19 9 14 23 14 32 0z m-2460 -10 c9 -15 -11 -33 -30 -26 -9 4 -13 13
-10 22 7 17 30 20 40 4z m2194 -10 c0 -6 -4 -7 -10 -4 -5 3 -10 11 -10 16 0 6
5 7 10 4 6 -3 10 -11 10 -16z m-2250 -8 c-1 -17 -18 -31 -33 -25 -20 7 -21 16
-6 31 11 11 39 7 39 -6z m2456 8 c3 -6 2 -15 -2 -19 -12 -12 -38 5 -30 19 9
14 23 14 32 0z m-985 -12 c-1 -12 -15 -9 -19 4 -3 6 1 10 8 8 6 -3 11 -8 11
-12z m727 1 c-3 -7 -11 -13 -18 -13 -7 0 -15 6 -17 13 -3 7 4 12 17 12 13 0
20 -5 18 -12z m200 -10 c-5 -15 -23 -11 -26 6 -2 11 2 14 13 10 9 -4 14 -11
13 -16z m-258 -2 c0 -8 -4 -17 -9 -21 -12 -7 -24 12 -16 25 9 15 25 12 25 -4z
m194 -4 c2 -4 1 -14 -4 -22 -7 -11 -12 -12 -21 -3 -6 6 -8 16 -5 22 8 13 23
14 30 3z m-1954 -12 c0 -5 -4 -10 -10 -10 -5 0 -10 5 -10 10 0 6 5 10 10 10 6
0 10 -4 10 -10z m1893 -26 c-3 -8 -9 -14 -13 -14 -11 0 -21 30 -14 41 9 15 34
-10 27 -27z m-320 -20 c-3 -8 -9 -14 -13 -14 -14 0 -22 20 -16 37 5 12 9 13
21 3 7 -6 11 -18 8 -26z m261 27 c4 -5 3 -16 0 -25 -5 -12 -10 -13 -25 -6 -10
6 -16 17 -13 25 7 17 30 20 38 6z m-54 -21 c0 -4 -6 -13 -14 -19 -17 -14 -31
2 -22 24 5 15 36 10 36 -5z m-1700 -5 c0 -9 -9 -15 -21 -15 -18 0 -19 2 -9 15
7 8 16 15 21 15 5 0 9 -7 9 -15z m1434 7 c8 -13 -11 -35 -23 -28 -16 10 -14
36 3 36 8 0 17 -4 20 -8z m-1244 -28 c0 -8 -4 -12 -10 -9 -5 3 -10 10 -10 16
0 5 5 9 10 9 6 0 10 -7 10 -16z m870 -20 c0 -8 -9 -14 -20 -14 -22 0 -28 26
-7 33 16 6 27 -1 27 -19z m310 16 c0 -5 -4 -10 -10 -10 -5 0 -10 5 -10 10 0 6
5 10 10 10 6 0 10 -4 10 -10z m150 -17 c-1 -19 -18 -33 -33 -27 -18 6 -21 16
-10 27 9 9 43 9 43 0z m-270 -13 c0 -5 -7 -10 -16 -10 -8 0 -12 5 -9 10 3 6
10 10 16 10 5 0 9 -4 9 -10z m-60 -21 c0 -5 -4 -9 -10 -9 -5 0 -10 7 -10 16 0
8 5 12 10 9 6 -3 10 -10 10 -16z m-1024 0 c3 -6 0 -17 -7 -25 -18 -17 -44 -2
-36 20 7 18 33 21 43 5z m1224 -15 c0 -14 -21 -19 -33 -7 -9 9 13 34 24 27 5
-3 9 -12 9 -20z m-262 5 c-2 -6 -8 -10 -13 -10 -5 0 -11 4 -13 10 -2 6 4 11
13 11 9 0 15 -5 13 -11z m-58 -20 c0 -5 -7 -9 -15 -9 -15 0 -20 12 -9 23 8 8
24 -1 24 -14z m268 4 c5 -17 -26 -29 -40 -15 -6 6 -7 15 -3 22 9 14 37 9 43
-7z m-69 -2 c16 -10 6 -31 -14 -31 -17 0 -28 17 -20 30 8 12 16 12 34 1z
m-780 -10 c18 -11 5 -31 -20 -31 -21 0 -22 1 -13 24 7 18 13 19 33 7z m513 -6
c0 -5 -5 -11 -11 -13 -6 -2 -11 4 -11 13 0 9 5 15 11 13 6 -2 11 -8 11 -13z
m-62 -15 c0 -5 -4 -10 -10 -10 -5 0 -10 5 -10 10 0 6 5 10 10 10 6 0 10 -4 10
-10z m-52 -23 c2 -10 -3 -17 -12 -17 -18 0 -29 16 -21 31 9 14 29 6 33 -14z
m200 -10 c2 -10 -3 -17 -12 -17 -18 0 -29 16 -21 31 9 14 29 6 33 -14z m-578
-7 c13 -8 13 -11 0 -24 -18 -19 -46 -5 -37 18 7 18 16 20 37 6z m524 1 c8 -12
-21 -34 -34 -26 -17 11 -11 35 9 35 11 0 22 -4 25 -9z"/>
<path d="M215 3180 c-3 -5 3 -18 13 -28 19 -19 19 -18 20 9 1 28 -20 40 -33
19z"/>
<path d="M1113 2964 c-9 -23 19 -38 34 -17 7 9 10 20 7 24 -9 15 -34 10 -41
-7z"/>
<path d="M350 2950 c0 -5 7 -10 16 -10 8 0 12 5 9 10 -3 6 -10 10 -16 10 -5 0
-9 -4 -9 -10z"/>
<path d="M1507 2946 c-9 -23 18 -39 34 -20 11 13 10 17 -2 25 -20 12 -26 11
-32 -5z"/>
<path d="M1536 2883 c-3 -3 -3 -10 0 -14 7 -12 34 -11 34 0 0 11 -26 22 -34
14z"/>
<path d="M1204 2868 c-3 -5 2 -18 12 -29 24 -27 8 -55 -30 -51 -18 2 -26 -1
-26 -12 0 -20 34 -21 52 -3 7 8 20 12 30 9 13 -3 18 1 18 16 0 12 -5 24 -10
27 -6 4 -8 15 -5 25 4 12 -1 19 -15 23 -11 3 -23 1 -26 -5z"/>
<path d="M1472 2866 c1 -10 8 -17 13 -17 15 1 12 24 -3 29 -9 3 -13 -2 -10
-12z"/>
<path d="M440 2856 c0 -2 7 -7 16 -10 8 -3 12 -2 9 4 -6 10 -25 14 -25 6z"/>
<path d="M1153 2844 c-8 -22 15 -43 27 -24 13 21 12 27 -5 34 -9 3 -18 -1 -22
-10z"/>
<path d="M1670 2846 c0 -7 7 -19 15 -26 13 -11 15 -8 15 14 0 16 -5 26 -15 26
-8 0 -15 -6 -15 -14z"/>
<path d="M1607 2835 c-8 -18 11 -31 25 -17 11 11 3 32 -12 32 -4 0 -10 -7 -13
-15z"/>
<path d="M1550 2815 c0 -8 5 -15 10 -15 6 0 10 7 10 15 0 8 -4 15 -10 15 -5 0
-10 -7 -10 -15z"/>
<path d="M1490 2806 c0 -9 5 -16 10 -16 6 0 10 4 10 9 0 6 -4 13 -10 16 -5 3
-10 -1 -10 -9z"/>
<path d="M1426 2793 c-11 -11 -6 -23 9 -23 8 0 15 4 15 9 0 13 -16 22 -24 14z"/>
<path d="M1687 2794 c-8 -8 1 -24 14 -24 5 0 9 7 9 15 0 15 -12 20 -23 9z"/>
<path d="M1106 2773 c-9 -22 10 -41 25 -26 13 13 5 43 -10 43 -5 0 -12 -8 -15
-17z"/>
<path d="M1630 2770 c0 -5 5 -10 10 -10 6 0 10 5 10 10 0 6 -4 10 -10 10 -5 0
-10 -4 -10 -10z"/>
<path d="M1570 2749 c0 -5 5 -7 10 -4 6 3 10 8 10 11 0 2 -4 4 -10 4 -5 0 -10
-5 -10 -11z"/>
<path d="M1505 2740 c-3 -5 1 -10 9 -10 9 0 16 5 16 10 0 6 -4 10 -9 10 -6 0
-13 -4 -16 -10z"/>
<path d="M1702 2731 c2 -7 7 -12 11 -12 12 1 9 15 -3 20 -7 2 -11 -2 -8 -8z"/>
<path d="M1896 2725 c-8 -21 1 -35 20 -35 10 0 14 8 12 22 -4 27 -23 34 -32
13z"/>
<path d="M1120 2710 c-11 -21 -6 -40 10 -40 5 0 14 9 19 19 8 14 7 22 -4 31
-11 9 -16 7 -25 -10z"/>
<path d="M1450 2714 c0 -8 5 -12 10 -9 6 4 8 11 5 16 -9 14 -15 11 -15 -7z"/>
<path d="M2096 2713 c-9 -22 10 -41 25 -26 13 13 5 43 -10 43 -5 0 -12 -8 -15
-17z"/>
<path d="M1382 2704 c4 -21 22 -23 26 -1 2 10 -3 17 -13 17 -10 0 -15 -6 -13
-16z"/>
<path d="M1645 2710 c-3 -5 1 -10 10 -10 9 0 13 5 10 10 -3 6 -8 10 -10 10 -2
0 -7 -4 -10 -10z"/>
<path d="M2035 2691 c-7 -12 12 -24 25 -16 11 7 4 25 -10 25 -5 0 -11 -4 -15
-9z"/>
<path d="M1520 2680 c0 -5 5 -10 10 -10 6 0 10 5 10 10 0 6 -4 10 -10 10 -5 0
-10 -4 -10 -10z"/>
<path d="M1980 2676 c0 -9 5 -16 10 -16 6 0 10 4 10 9 0 6 -4 13 -10 16 -5 3
-10 -1 -10 -9z"/>
<path d="M3775 2680 c3 -5 11 -10 16 -10 6 0 7 5 4 10 -3 6 -11 10 -16 10 -6
0 -7 -4 -4 -10z"/>
<path d="M1460 2660 c0 -5 5 -10 10 -10 6 0 10 5 10 10 0 6 -4 10 -10 10 -5 0
-10 -4 -10 -10z"/>
<path d="M1725 2660 c3 -5 8 -10 11 -10 2 0 4 5 4 10 0 6 -5 10 -11 10 -5 0
-7 -4 -4 -10z"/>
<path d="M1920 2656 c0 -9 5 -16 10 -16 6 0 10 4 10 9 0 6 -4 13 -10 16 -5 3
-10 -1 -10 -9z"/>
<path d="M626 2635 c4 -9 11 -14 16 -13 15 5 11 23 -6 26 -11 2 -14 -2 -10
-13z"/>
<path d="M1335 2640 c-10 -17 12 -37 25 -24 8 8 6 15 -4 23 -10 9 -16 9 -21 1z"/>
<path d="M1400 2640 c0 -5 4 -10 9 -10 6 0 13 5 16 10 3 6 -1 10 -9 10 -9 0
-16 -4 -16 -10z"/>
<path d="M1792 2628 c2 -12 11 -24 21 -26 24 -5 22 25 -4 38 -18 10 -20 9 -17
-12z"/>
<path d="M1853 2638 c2 -7 10 -13 17 -13 7 0 15 6 18 13 2 7 -5 12 -18 12 -13
0 -20 -5 -17 -12z"/>
<path d="M2120 2640 c0 -5 4 -10 9 -10 6 0 13 5 16 10 3 6 -1 10 -9 10 -9 0
-16 -4 -16 -10z"/>
<path d="M2060 2624 c0 -8 5 -12 10 -9 6 4 8 11 5 16 -9 14 -15 11 -15 -7z"/>
<path d="M2252 2613 c4 -21 33 -25 33 -3 0 8 -8 16 -18 18 -14 3 -18 -1 -15
-15z"/>
<path d="M1545 2610 c3 -5 8 -10 11 -10 2 0 4 5 4 10 0 6 -5 10 -11 10 -5 0
-7 -4 -4 -10z"/>
<path d="M1740 2604 c0 -9 5 -14 12 -12 18 6 21 28 4 28 -9 0 -16 -7 -16 -16z"/>
<path d="M2000 2610 c0 -5 5 -10 10 -10 6 0 10 5 10 10 0 6 -4 10 -10 10 -5 0
-10 -4 -10 -10z"/>
<path d="M697 2596 c-7 -19 18 -42 28 -26 8 13 -1 40 -14 40 -5 0 -11 -6 -14
-14z"/>
<path d="M1480 2599 c0 -5 5 -7 10 -4 6 3 10 8 10 11 0 2 -4 4 -10 4 -5 0 -10
-5 -10 -11z"/>
<path d="M2192 2601 c2 -7 7 -12 11 -12 12 1 9 15 -3 20 -7 2 -11 -2 -8 -8z"/>
<path d="M1420 2580 c0 -5 5 -10 10 -10 6 0 10 5 10 10 0 6 -4 10 -10 10 -5 0
-10 -4 -10 -10z"/>
<path d="M1680 2579 c0 -5 5 -7 10 -4 6 3 10 8 10 11 0 2 -4 4 -10 4 -5 0 -10
-5 -10 -11z"/>
<path d="M1875 2580 c-3 -5 -1 -10 4 -10 6 0 11 5 11 10 0 6 -2 10 -4 10 -3 0
-8 -4 -11 -10z"/>
<path d="M2130 2580 c0 -5 5 -10 10 -10 6 0 10 5 10 10 0 6 -4 10 -10 10 -5 0
-10 -4 -10 -10z"/>
<path d="M1620 2569 c0 -5 5 -7 10 -4 6 3 10 8 10 11 0 2 -4 4 -10 4 -5 0 -10
-5 -10 -11z"/>
<path d="M1810 2560 c0 -5 5 -10 10 -10 6 0 10 5 10 10 0 6 -4 10 -10 10 -5 0
-10 -4 -10 -10z"/>
<path d="M2265 2559 c-10 -15 1 -23 20 -15 9 3 13 10 10 16 -8 13 -22 13 -30
-1z"/>
<path d="M1745 2550 c-8 -12 20 -24 35 -15 5 3 10 10 10 16 0 12 -37 12 -45
-1z"/>
<path d="M732 2505 c6 -19 17 -36 25 -39 17 -7 17 8 -1 23 -8 7 -12 21 -9 31
4 14 0 20 -10 20 -13 0 -13 -6 -5 -35z"/>
<path d="M1375 2509 c-4 -6 -5 -13 -2 -16 7 -7 27 6 27 18 0 12 -17 12 -25 -2z"/>
<path d="M1630 2510 c0 -5 4 -10 9 -10 6 0 13 5 16 10 3 6 -1 10 -9 10 -9 0
-16 -4 -16 -10z"/>
<path d="M2796 2505 c-7 -20 23 -32 35 -14 13 21 11 29 -10 29 -10 0 -22 -7
-25 -15z"/>
<path d="M2744 2496 c-4 -11 -1 -21 7 -27 17 -11 26 18 10 34 -7 7 -12 5 -17
-7z"/>
<path d="M2995 2500 c-7 -12 12 -40 27 -40 13 0 6 43 -9 47 -6 2 -14 -1 -18
-7z"/>
<path d="M1570 2490 c0 -5 5 -10 10 -10 6 0 10 5 10 10 0 6 -4 10 -10 10 -5 0
-10 -4 -10 -10z"/>
<path d="M1766 2492 c-3 -6 -1 -14 5 -17 15 -10 25 3 12 16 -7 7 -13 7 -17 1z"/>
<path d="M2290 2490 c0 -5 5 -10 10 -10 6 0 10 5 10 10 0 6 -4 10 -10 10 -5 0
-10 -4 -10 -10z"/>
<path d="M2936 2483 c-8 -19 14 -37 28 -23 10 10 1 40 -13 40 -5 0 -12 -8 -15
-17z"/>
<path d="M1510 2480 c0 -5 5 -10 10 -10 6 0 10 5 10 10 0 6 -4 10 -10 10 -5 0
-10 -4 -10 -10z"/>
<path d="M1705 2470 c-7 -12 2 -30 16 -30 5 0 9 9 9 20 0 21 -15 27 -25 10z"/>
<path d="M1450 2460 c0 -5 5 -10 10 -10 6 0 10 5 10 10 0 6 -4 10 -10 10 -5 0
-10 -4 -10 -10z"/>
<path d="M2615 2460 c-3 -6 1 -13 10 -16 19 -8 30 0 20 15 -8 14 -22 14 -30 1z"/>
<path d="M2875 2459 c-10 -15 1 -23 20 -15 9 3 13 10 10 16 -8 13 -22 13 -30
-1z"/>
<path d="M3076 2463 c-13 -14 -5 -33 14 -33 11 0 20 6 20 14 0 15 -24 28 -34
19z"/>
<path d="M1382 2444 c4 -21 22 -23 26 -1 2 10 -3 17 -13 17 -10 0 -15 -6 -13
-16z"/>
<path d="M2360 2450 c0 -5 7 -10 16 -10 8 0 12 5 9 10 -3 6 -10 10 -16 10 -5
0 -9 -4 -9 -10z"/>
<path d="M2820 2445 c0 -8 5 -15 10 -15 6 0 10 7 10 15 0 8 -4 15 -10 15 -5 0
-10 -7 -10 -15z"/>
<path d="M805 2433 c-7 -19 9 -38 24 -29 16 10 14 33 -3 39 -8 3 -17 -1 -21
-10z"/>
<path d="M1590 2429 c0 -5 5 -7 10 -4 6 3 10 8 10 11 0 2 -4 4 -10 4 -5 0 -10
-5 -10 -11z"/>
<path d="M2760 2424 c0 -8 5 -12 10 -9 6 4 8 11 5 16 -9 14 -15 11 -15 -7z"/>
<path d="M3012 2429 c2 -6 8 -10 13 -10 5 0 11 4 13 10 2 6 -4 11 -13 11 -9 0
-15 -5 -13 -11z"/>
<path d="M1530 2420 c0 -5 5 -10 11 -10 5 0 7 5 4 10 -3 6 -8 10 -11 10 -2 0
-4 -4 -4 -10z"/>
<path d="M2956 2422 c-3 -6 -1 -14 5 -17 15 -10 25 3 12 16 -7 7 -13 7 -17 1z"/>
<path d="M3347 2396 c-7 -18 1 -26 25 -26 22 0 24 26 2 34 -21 8 -21 8 -27 -8z"/>
<path d="M2386 2391 c-4 -5 -2 -12 3 -15 5 -4 12 -2 15 3 4 5 2 12 -3 15 -5 4
-12 2 -15 -3z"/>
<path d="M3286 2383 c-11 -26 11 -40 32 -20 15 16 15 19 2 27 -21 14 -27 12
-34 -7z"/>
<path d="M2840 2380 c0 -5 5 -10 11 -10 5 0 7 5 4 10 -3 6 -8 10 -11 10 -2 0
-4 -4 -4 -10z"/>
<path d="M836 2371 c-3 -5 1 -11 9 -15 8 -3 15 -1 15 4 0 13 -18 22 -24 11z"/>
<path d="M3035 2370 c3 -5 11 -10 16 -10 6 0 7 5 4 10 -3 6 -11 10 -16 10 -6
0 -7 -4 -4 -10z"/>
<path d="M3485 2370 c-4 -6 0 -19 9 -28 9 -11 13 -27 9 -40 -4 -16 -1 -22 10
-22 22 0 31 18 17 35 -6 8 -10 24 -8 37 3 24 -25 38 -37 18z"/>
<path d="M3430 2350 c0 -13 5 -20 13 -17 6 2 12 10 12 17 0 7 -6 15 -12 18 -8
2 -13 -5 -13 -18z"/>
<path d="M1477 2354 c-14 -14 -7 -35 11 -32 9 2 17 10 17 17 0 16 -18 25 -28
15z"/>
<path d="M1745 2350 c-3 -5 -1 -10 4 -10 6 0 11 5 11 10 0 6 -2 10 -4 10 -3 0
-8 -4 -11 -10z"/>
<path d="M2460 2344 c0 -8 5 -12 10 -9 6 4 8 11 5 16 -9 14 -15 11 -15 -7z"/>
<path d="M960 2330 c0 -15 5 -20 18 -18 9 2 17 10 17 18 0 8 -8 16 -17 18 -13
2 -18 -3 -18 -18z"/>
<path d="M896 2331 c-3 -5 4 -11 16 -14 30 -8 35 -1 9 12 -11 6 -22 7 -25 2z"/>
<path d="M2397 2333 c-12 -11 -8 -23 8 -23 8 0 15 7 15 15 0 16 -12 20 -23 8z"/>
<path d="M3116 2333 c-11 -11 -6 -23 9 -23 8 0 15 4 15 9 0 13 -16 22 -24 14z"/>
<path d="M3367 2334 c-8 -8 1 -24 14 -24 5 0 9 7 9 15 0 15 -12 20 -23 9z"/>
<path d="M3300 2315 c0 -8 7 -15 15 -15 8 0 15 7 15 15 0 8 -7 15 -15 15 -8 0
-15 -7 -15 -15z"/>
<path d="M3445 2290 c-8 -13 15 -24 27 -12 6 6 4 11 -6 15 -8 3 -18 2 -21 -3z"/>
<path d="M984 2274 c3 -9 6 -18 6 -20 0 -2 5 -4 10 -4 6 0 10 9 10 20 0 12 -7
20 -16 20 -11 0 -14 -5 -10 -16z"/>
<path d="M3390 2264 c0 -8 5 -12 10 -9 6 4 8 11 5 16 -9 14 -15 11 -15 -7z"/>
<path d="M3130 2260 c0 -5 5 -10 10 -10 6 0 10 5 10 10 0 6 -4 10 -10 10 -5 0
-10 -4 -10 -10z"/>
<path d="M3577 2263 c-11 -11 -8 -21 9 -27 19 -7 47 12 38 25 -6 11 -38 12
-47 2z"/>
<path d="M3837 2264 c-11 -11 3 -24 24 -24 12 0 19 5 17 13 -5 14 -31 21 -41
11z"/>
<path d="M3320 2250 c0 -5 7 -10 15 -10 8 0 15 5 15 10 0 6 -7 10 -15 10 -8 0
-15 -4 -15 -10z"/>
<path d="M3515 2250 c-4 -6 -1 -18 6 -26 12 -14 14 -14 26 2 7 9 10 21 7 25
-7 12 -31 11 -39 -1z"/>
<path d="M3777 2254 c-9 -10 2 -24 19 -24 8 0 14 7 14 15 0 15 -21 21 -33 9z"/>
<path d="M1050 2231 c0 -25 19 -38 31 -20 12 19 6 33 -14 37 -11 2 -17 -3 -17
-17z"/>
<path d="M3266 2241 c-4 -5 -2 -12 3 -15 5 -4 12 -2 15 3 4 5 2 12 -3 15 -5 4
-12 2 -15 -3z"/>
<path d="M3200 2220 c0 -13 5 -20 13 -17 6 2 12 10 12 17 0 7 -6 15 -12 18 -8
2 -13 -5 -13 -18z"/>
<path d="M3465 2230 c-4 -6 -3 -16 3 -22 6 -6 12 -6 17 2 4 6 3 16 -3 22 -6 6
-12 6 -17 -2z"/>
<path d="M3660 2232 c0 -6 -3 -17 -6 -25 -4 -11 0 -15 12 -13 24 4 28 20 9 36
-9 7 -15 8 -15 2z"/>
<path d="M3716 2231 c-3 -5 0 -14 8 -20 11 -9 15 -8 20 5 3 8 6 18 6 20 0 8
-29 4 -34 -5z"/>
<path d="M3533 2190 c-4 -15 -12 -20 -31 -18 -30 4 -41 -18 -14 -27 12 -3 35
3 56 15 20 11 46 19 57 17 12 -1 24 4 26 10 7 18 -27 29 -38 12 -6 -11 -11
-11 -21 -1 -17 17 -29 15 -35 -8z"/>
<path d="M3857 2203 c-12 -11 -8 -23 8 -23 8 0 15 7 15 15 0 16 -12 20 -23 8z"/>
<path d="M3340 2190 c0 -5 5 -10 10 -10 6 0 10 5 10 10 0 6 -4 10 -10 10 -5 0
-10 -4 -10 -10z"/>
<path d="M3796 2192 c-3 -6 -1 -14 5 -17 15 -10 25 3 12 16 -7 7 -13 7 -17 1z"/>
<path d="M1072 2174 c1 -9 9 -19 16 -22 9 -3 13 2 10 14 -1 9 -9 19 -16 22 -9
3 -13 -2 -10 -14z"/>
<path d="M3285 2170 c3 -5 8 -10 11 -10 2 0 4 5 4 10 0 6 -5 10 -11 10 -5 0
-7 -4 -4 -10z"/>
<path d="M3737 2174 c-8 -8 1 -24 14 -24 5 0 9 7 9 15 0 15 -12 20 -23 9z"/>
<path d="M3420 2145 c0 -8 5 -15 10 -15 6 0 10 7 10 15 0 8 -4 15 -10 15 -5 0
-10 -7 -10 -15z"/>
<path d="M3680 2144 c0 -14 3 -14 15 -4 8 7 15 14 15 16 0 2 -7 4 -15 4 -8 0
-15 -7 -15 -16z"/>
<path d="M3165 2140 c-3 -5 -1 -10 4 -10 6 0 11 5 11 10 0 6 -2 10 -4 10 -3 0
-8 -4 -11 -10z"/>
<path d="M3615 2140 c-7 -12 2 -30 16 -30 12 0 12 27 0 35 -5 3 -12 1 -16 -5z"/>
<path d="M1145 2130 c-3 -6 1 -13 10 -16 19 -8 30 0 20 15 -8 14 -22 14 -30 1z"/>
<path d="M3360 2130 c0 -5 5 -10 10 -10 6 0 10 5 10 10 0 6 -4 10 -10 10 -5 0
-10 -4 -10 -10z"/>
<path d="M3550 2120 c0 -15 5 -20 18 -18 9 2 17 10 17 18 0 8 -8 16 -17 18
-13 2 -18 -3 -18 -18z"/>
<path d="M3815 2130 c-4 -6 -3 -16 3 -22 6 -6 12 -6 17 2 4 6 3 16 -3 22 -6 6
-12 6 -17 -2z"/>
<path d="M1100 2121 c0 -5 5 -13 10 -16 6 -3 10 -2 10 4 0 5 -4 13 -10 16 -5
3 -10 2 -10 -4z"/>
<path d="M3300 2109 c0 -5 5 -7 10 -4 6 3 10 8 10 11 0 2 -4 4 -10 4 -5 0 -10
-5 -10 -11z"/>
<path d="M3750 2105 c0 -9 5 -15 11 -13 6 2 11 8 11 13 0 5 -5 11 -11 13 -6 2
-11 -4 -11 -13z"/>
<path d="M3240 2094 c0 -8 5 -12 10 -9 6 4 8 11 5 16 -9 14 -15 11 -15 -7z"/>
<path d="M3690 2090 c0 -13 5 -20 13 -17 6 2 12 10 12 17 0 7 -6 15 -12 18 -8
2 -13 -5 -13 -18z"/>
<path d="M1225 2081 c-7 -12 12 -24 25 -16 11 7 4 25 -10 25 -5 0 -11 -4 -15
-9z"/>
<path d="M3631 2076 c-7 -8 -8 -17 -3 -20 6 -3 15 1 21 8 7 8 8 17 3 20 -6 3
-15 -1 -21 -8z"/>
<path d="M1165 2070 c-4 -7 -1 -16 6 -21 17 -10 26 8 11 23 -6 6 -12 6 -17 -2z"/>
<path d="M3564 2068 c-3 -5 -1 -15 5 -21 8 -8 15 -7 27 5 14 14 14 16 -5 21
-12 3 -24 1 -27 -5z"/>
<path d="M3120 2060 c0 -5 5 -10 10 -10 6 0 10 5 10 10 0 6 -4 10 -10 10 -5 0
-10 -4 -10 -10z"/>
<path d="M3316 2063 c-11 -11 -6 -23 9 -23 8 0 15 4 15 9 0 13 -16 22 -24 14z"/>
<path d="M1306 2053 c-12 -12 -6 -33 9 -33 8 0 15 6 15 14 0 17 -14 28 -24 19z"/>
<path d="M3770 2045 c0 -8 5 -15 10 -15 6 0 10 7 10 15 0 8 -4 15 -10 15 -5 0
-10 -7 -10 -15z"/>
<path d="M3710 2030 c0 -5 7 -10 16 -10 8 0 12 5 9 10 -3 6 -10 10 -16 10 -5
0 -9 -4 -9 -10z"/>
<path d="M1240 2026 c0 -2 7 -6 15 -10 8 -3 15 -1 15 4 0 6 -7 10 -15 10 -8 0
-15 -2 -15 -4z"/>
<path d="M3646 2022 c-3 -6 -1 -14 5 -17 15 -10 25 3 12 16 -7 7 -13 7 -17 1z"/>
<path d="M3584 1999 c-8 -14 18 -31 30 -19 9 9 0 30 -14 30 -5 0 -12 -5 -16
-11z"/>
<path d="M1326 1976 c3 -9 11 -16 16 -16 13 0 5 23 -10 28 -7 2 -10 -2 -6 -12z"/>
<path d="M3263 1984 c-9 -4 -6 -17 9 -45 15 -29 24 -37 32 -29 7 7 7 16 -2 30
-6 11 -12 27 -12 35 0 15 -6 17 -27 9z"/>
<path d="M2035 1970 c-3 -5 1 -10 10 -10 9 0 13 5 10 10 -3 6 -8 10 -10 10 -2
0 -7 -4 -10 -10z"/>
<path d="M2300 1969 c0 -5 5 -7 10 -4 6 3 10 8 10 11 0 2 -4 4 -10 4 -5 0 -10
-5 -10 -11z"/>
<path d="M3720 1965 c0 -8 7 -15 15 -15 8 0 15 7 15 15 0 8 -7 15 -15 15 -8 0
-15 -7 -15 -15z"/>
<path d="M3665 1960 c-4 -6 -3 -16 3 -22 6 -6 12 -6 17 2 4 6 3 16 -3 22 -6 6
-12 6 -17 -2z"/>
<path d="M4385 1959 c-4 -6 -5 -12 -2 -15 2 -3 7 2 10 11 7 17 1 20 -8 4z"/>
<path d="M1391 1936 c-9 -11 -7 -15 8 -19 26 -6 49 18 25 27 -21 8 -20 8 -33
-8z"/>
<path d="M3597 1943 c-13 -12 -7 -23 13 -23 11 0 20 7 20 15 0 15 -21 21 -33
8z"/>
<path d="M4316 1943 c-11 -11 -6 -23 9 -23 8 0 15 4 15 9 0 13 -16 22 -24 14z"/>
<path d="M2115 1931 c-3 -5 -1 -12 5 -16 5 -3 10 1 10 9 0 18 -6 21 -15 7z"/>
<path d="M2310 1915 c0 -8 5 -15 10 -15 6 0 10 7 10 15 0 8 -4 15 -10 15 -5 0
-10 -7 -10 -15z"/>
<path d="M1475 1889 c-10 -15 1 -23 20 -15 9 3 13 10 10 16 -8 13 -22 13 -30
-1z"/>
<path d="M2390 1870 c0 -5 5 -10 10 -10 6 0 10 5 10 10 0 6 -4 10 -10 10 -5 0
-10 -4 -10 -10z"/>
<path d="M3040 1856 c0 -21 21 -31 30 -15 5 7 6 17 4 21 -9 14 -34 9 -34 -6z"/>
<path d="M4270 1855 c0 -9 6 -12 15 -9 8 4 15 10 15 15 0 5 -7 9 -15 9 -8 0
-15 -7 -15 -15z"/>
<path d="M1546 1845 c-4 -10 1 -15 14 -15 11 0 20 7 20 15 0 8 -6 15 -14 15
-8 0 -16 -7 -20 -15z"/>
<path d="M4207 1845 c-8 -18 11 -31 25 -17 11 11 3 32 -12 32 -4 0 -10 -7 -13
-15z"/>
<path d="M1943 1824 c-7 -19 11 -39 26 -30 16 10 13 33 -4 40 -9 3 -18 -1 -22
-10z"/>
<path d="M1625 1809 c-4 -6 -1 -15 6 -20 21 -13 31 -11 27 8 -4 20 -24 28 -33
12z"/>
<path d="M1875 1810 c-4 -7 -3 -16 3 -22 14 -14 45 -2 40 15 -6 16 -34 21 -43
7z"/>
<path d="M1824 1797 c-6 -17 2 -37 16 -37 15 0 19 29 5 40 -12 10 -16 9 -21
-3z"/>
<path d="M3062 1796 c1 -10 8 -17 13 -17 15 1 12 24 -3 29 -9 3 -13 -2 -10
-12z"/>
<path d="M3966 1783 c-4 -9 -1 -20 6 -24 7 -5 13 -20 13 -35 0 -15 5 -29 11
-31 16 -5 28 29 13 37 -6 4 -9 16 -8 26 6 37 -23 59 -35 27z"/>
<path d="M1760 1775 c-10 -12 -9 -16 5 -21 23 -9 40 10 22 25 -11 9 -17 8 -27
-4z"/>
<path d="M2015 1780 c-4 -7 -3 -16 3 -22 14 -14 45 -2 40 15 -6 16 -34 21 -43
7z"/>
<path d="M1961 1767 c-16 -16 7 -41 25 -26 8 6 14 15 14 19 0 14 -27 19 -39 7z"/>
<path d="M3000 1771 c0 -6 5 -13 10 -16 6 -3 10 1 10 9 0 9 -4 16 -10 16 -5 0
-10 -4 -10 -9z"/>
<path d="M3906 1765 c-3 -9 1 -18 10 -22 20 -7 38 18 21 29 -18 11 -24 10 -31
-7z"/>
<path d="M1702 1758 c3 -7 13 -15 22 -16 12 -3 17 1 14 10 -3 7 -13 15 -22 16
-12 3 -17 -1 -14 -10z"/>
<path d="M2930 1756 c0 -19 27 -28 33 -11 7 15 -1 25 -20 25 -7 0 -13 -6 -13
-14z"/>
<path d="M1897 1745 c-8 -18 11 -31 25 -17 11 11 3 32 -12 32 -4 0 -10 -7 -13
-15z"/>
<path d="M2873 1744 c-8 -21 19 -38 30 -18 9 16 1 34 -14 34 -5 0 -12 -7 -16
-16z"/>
<path d="M3845 1751 c-8 -15 3 -31 21 -31 9 0 14 7 12 17 -4 20 -24 28 -33 14z"/>
<path d="M1842 1738 c-18 -18 -14 -28 8 -28 11 0 20 6 20 14 0 21 -15 27 -28
14z"/>
<path d="M2806 1733 c-6 -15 8 -32 25 -33 10 0 20 31 13 41 -9 15 -31 10 -38
-8z"/>
<path d="M3787 1744 c-14 -15 -6 -34 14 -34 14 0 19 5 17 17 -3 18 -20 27 -31
17z"/>
<path d="M4043 1735 c-8 -23 4 -30 21 -12 8 8 12 17 9 21 -11 11 -23 7 -30 -9z"/>
<path d="M2034 1719 c-3 -6 -2 -15 4 -21 13 -13 32 -2 32 18 0 16 -26 19 -36
3z"/>
<path d="M3727 1724 c-14 -15 -6 -34 14 -34 14 0 19 5 17 17 -3 18 -20 27 -31
17z"/>
<path d="M1976 1713 c-13 -14 -5 -33 14 -33 11 0 20 6 20 14 0 15 -24 28 -34
19z"/>
<path d="M3923 1704 c-7 -18 17 -38 31 -24 11 11 1 40 -14 40 -6 0 -13 -7 -17
-16z"/>
<path d="M2173 1694 c-7 -19 11 -39 26 -30 16 10 13 33 -4 40 -9 3 -18 -1 -22
-10z"/>
<path d="M3664 1699 c-8 -14 18 -31 30 -19 9 9 0 30 -14 30 -5 0 -12 -5 -16
-11z"/>
<path d="M2885 1690 c-3 -6 -18 -9 -33 -8 -18 2 -27 -2 -30 -15 -4 -21 27 -35
38 -16 5 7 21 13 37 14 18 0 28 5 28 15 0 18 -30 26 -40 10z"/>
<path d="M3604 1689 c-10 -17 13 -36 27 -22 12 12 4 33 -11 33 -5 0 -12 -5
-16 -11z"/>
<path d="M3862 1683 c4 -21 33 -25 33 -3 0 8 -8 16 -18 18 -14 3 -18 -1 -15
-15z"/>
<path d="M2117 1684 c-12 -13 -8 -22 14 -27 15 -4 19 -1 17 10 -3 18 -21 27
-31 17z"/>
<path d="M3544 1669 c-10 -17 13 -36 27 -22 12 12 4 33 -11 33 -5 0 -12 -5
-16 -11z"/>
<path d="M3800 1664 c0 -9 7 -14 17 -12 25 5 28 28 4 28 -12 0 -21 -6 -21 -16z"/>
<path d="M2763 1654 c-5 -14 11 -33 28 -34 10 0 20 31 13 41 -9 15 -34 10 -41
-7z"/>
<path d="M3484 1656 c-9 -24 12 -44 28 -28 10 10 8 16 -5 29 -15 15 -17 15
-23 -1z"/>
<path d="M3743 1654 c-3 -9 0 -20 8 -25 21 -13 32 -11 25 7 -3 9 -6 20 -6 25
0 15 -20 10 -27 -7z"/>
<path d="M2250 1650 c0 -5 9 -10 21 -10 11 0 17 5 14 10 -3 6 -13 10 -21 10
-8 0 -14 -4 -14 -10z"/>
<path d="M2446 1635 c-9 -24 -8 -25 15 -25 14 0 19 5 17 17 -4 23 -24 27 -32
8z"/>
<path d="M3424 1639 c-10 -17 13 -36 27 -22 12 12 4 33 -11 33 -5 0 -12 -5
-16 -11z"/>
<path d="M3684 1639 c-3 -6 0 -15 7 -20 14 -8 32 9 23 23 -7 11 -22 10 -30 -3z"/>
<path d="M2390 1620 c0 -5 7 -10 16 -10 8 0 12 5 9 10 -3 6 -10 10 -16 10 -5
0 -9 -4 -9 -10z"/>
<path d="M3365 1620 c-8 -13 4 -32 16 -25 12 8 12 35 0 35 -6 0 -13 -4 -16
-10z"/>
<path d="M3620 1616 c0 -9 7 -12 20 -9 11 3 17 9 14 14 -8 14 -34 10 -34 -5z"/>
<path d="M3306 1613 c-12 -12 -6 -33 9 -33 8 0 15 6 15 14 0 17 -14 28 -24 19z"/>
<path d="M3560 1600 c0 -13 5 -20 13 -17 6 2 12 10 12 17 0 7 -6 15 -12 18 -8
2 -13 -5 -13 -18z"/>
<path d="M3242 1583 c5 -25 28 -28 28 -4 0 12 -6 21 -16 21 -9 0 -14 -7 -12
-17z"/>
<path d="M3496 1585 c-4 -10 1 -15 14 -15 11 0 20 7 20 15 0 8 -6 15 -14 15
-8 0 -16 -7 -20 -15z"/>
<path d="M3182 1564 c4 -21 22 -23 26 -1 2 10 -3 17 -13 17 -10 0 -15 -6 -13
-16z"/>
<path d="M3440 1565 c0 -9 6 -12 15 -9 8 4 15 10 15 15 0 5 -7 9 -15 9 -8 0
-15 -7 -15 -15z"/>
<path d="M3125 1560 c-9 -15 -1 -23 21 -18 15 3 16 4 1 16 -11 9 -17 10 -22 2z"/>
<path d="M3380 1559 c0 -5 5 -7 10 -4 6 3 10 8 10 11 0 2 -4 4 -10 4 -5 0 -10
-5 -10 -11z"/>
</g>
</svg>
